<svg width="40" height="37" viewBox="0 0 40 37" fill="none" xmlns="http://www.w3.org/2000/svg">
    <path d="M34.3094 34.3738C34.2332 34.7473 34.0302 35.0829 33.7348 35.3238C33.4394 35.5647 33.0698 35.696 32.6886 35.6956H7.31123C6.93007 35.696 6.56047 35.5647 6.26508 35.3238C5.96969 35.0829 5.76668 34.7473 5.69045 34.3738L2.6521 19.1738H37.3478L34.3094 34.3738Z" fill="white" stroke="#000D40" stroke-width="2" stroke-linecap="round" stroke-linejoin="round"/>
    <path d="M2.65217 14.2173H37.3478C37.3478 14.2173 39 14.2173 39 15.8695V17.5216C39 17.5216 39 19.1738 37.3478 19.1738H2.65217C2.65217 19.1738 1 19.1738 1 17.5216V15.8695C1 15.8695 1 14.2173 2.65217 14.2173Z" fill="white" stroke="#000D40" stroke-width="2" stroke-linecap="round" stroke-linejoin="round"/>
    <path d="M5.95654 10.913L15.8696 1L5.95654 10.913Z" fill="white"/>
    <path d="M5.95654 10.913L15.8696 1" stroke="#000D40" stroke-width="2" stroke-linecap="round" stroke-linejoin="round"/>
    <path d="M34.0434 10.913L24.1304 1L34.0434 10.913Z" fill="white"/>
    <path d="M34.0434 10.913L24.1304 1" stroke="#000D40" stroke-width="2" stroke-linecap="round" stroke-linejoin="round"/>
    <path d="M22.4783 22.4783V30.7391V22.4783Z" fill="white"/>
    <path d="M22.4783 22.4783V30.7391" stroke="#000D40" stroke-width="2" stroke-linecap="round" stroke-linejoin="round"/>
    <path d="M8 5V13.2609V5Z" fill="white"/>
    <path d="M8 5V13.2609" stroke="#000D40" stroke-width="2" stroke-linecap="round" stroke-linejoin="round"/>
    <path d="M29.0869 22.4783V30.7391V22.4783Z" fill="white"/>
    <path d="M29.0869 22.4783V30.7391" stroke="#000D40" stroke-width="2" stroke-linecap="round" stroke-linejoin="round"/>
    <path d="M17.5217 22.4783V30.7391V22.4783Z" fill="white"/>
    <path d="M17.5217 22.4783V30.7391" stroke="#000D40" stroke-width="2" stroke-linecap="round" stroke-linejoin="round"/>
    <path d="M10.9131 22.4783V30.7391V22.4783Z" fill="white"/>
    <path d="M10.9131 22.4783V30.7391" stroke="#000D40" stroke-width="2" stroke-linecap="round" stroke-linejoin="round"/>
    <path d="M23 3L34 13L23 3Z" fill="white"/>
    <path d="M23 3L34 13" stroke="white" stroke-width="1.5" stroke-linecap="round" stroke-linejoin="round"/>
    <path d="M17 3L6 13L17 3Z" fill="white"/>
    <path d="M17 3L6 13" stroke="white" stroke-width="1.5" stroke-linecap="round" stroke-linejoin="round"/>
    <path d="M17 3L6 13" stroke="white" stroke-width="1.5" stroke-linecap="round" stroke-linejoin="round"/>
</svg>
