<?xml version="1.0" encoding="utf-8"?>
<!-- Generator: Adobe Illustrator 27.8.0, SVG Export Plug-In . SVG Version: 6.00 Build 0)  -->
<svg version="1.1" id="Layer_1" xmlns="http://www.w3.org/2000/svg" xmlns:xlink="http://www.w3.org/1999/xlink" x="0px" y="0px"
	 viewBox="0 0 63 39" style="enable-background:new 0 0 63 39;" xml:space="preserve">
<style type="text/css">
	.st0{fill:none;stroke:#000D40;stroke-width:2.5;stroke-linecap:round;stroke-linejoin:round;stroke-miterlimit:1.5;}
	.st1{fill:none;stroke:#000D40;stroke-width:2.5;stroke-linecap:round;}
	.st2{fill:none;stroke:#000D40;stroke-width:2.5;stroke-linecap:round;stroke-linejoin:round;}
</style>
<path class="st0" d="M20.8,36.9c3,0,5.4-2.4,5.4-5.4s-2.4-5.4-5.4-5.4c-3,0-5.4,2.4-5.4,5.4S17.8,36.9,20.8,36.9z"/>
<path class="st0" d="M47.6,36.9c3,0,5.4-2.4,5.4-5.4s-2.4-5.4-5.4-5.4c-3,0-5.4,2.4-5.4,5.4S44.6,36.9,47.6,36.9z"/>
<path class="st1" d="M26.3,31.5h13.3V3.6c0-0.9-0.7-1.6-1.6-1.6H2"/>
<path class="st1" d="M14.5,31.5H9c-0.9,0-1.6-0.7-1.6-1.6V16.8"/>
<path class="st2" d="M4.7,10h10.7"/>
<path class="st1" d="M39.5,10h15c0.6,0,1.2,0.4,1.5,1l4.8,10.8C61,22,61,22.2,61,22.5v7.4c0,0.9-0.7,1.6-1.6,1.6h-5.1"/>
<path class="st1" d="M39.5,31.5h2.7"/>
</svg>
