<?xml version="1.0" encoding="utf-8"?>
<!-- Generator: Adobe Illustrator 27.8.0, SVG Export Plug-In . SVG Version: 6.00 Build 0)  -->
<svg version="1.1" id="Layer_1" xmlns="http://www.w3.org/2000/svg" xmlns:xlink="http://www.w3.org/1999/xlink" x="0px" y="0px"
	 viewBox="0 0 24 20" style="enable-background:new 0 0 24 20;" xml:space="preserve">
<style type="text/css">
	.st0{clip-path:url(#SVGID_00000174574987454513240670000007568299373049081996_);}
	.st1{fill:#000D40;}
</style>
<g>
	<defs>
		<rect id="SVGID_1_" y="0.4" width="24" height="19.2"/>
	</defs>
	<clipPath id="SVGID_00000162324624886710837770000009964188281904571809_">
		<use xlink:href="#SVGID_1_"  style="overflow:visible;"/>
	</clipPath>
	<g style="clip-path:url(#SVGID_00000162324624886710837770000009964188281904571809_);">
		<path class="st1" d="M19.6,17c-0.2,0-0.4,0.2-0.4,0.4s0.2,0.4,0.4,0.4h0c0.2,0,0.4-0.2,0.4-0.4S19.8,17,19.6,17z"/>
		<path class="st1" d="M6,17c-0.2,0-0.4,0.2-0.4,0.4s0.2,0.4,0.4,0.4h0c0.2,0,0.4-0.2,0.4-0.4S6.2,17,6,17z"/>
		<path class="st1" d="M23.7,12.5l-1.3-0.9l0-4c0-0.6-0.5-1.1-1.1-1.1h-3.2c0-0.2,0-0.4-0.1-0.6c-0.1-0.2-0.4-0.3-0.6-0.3H13
			c-0.6-3-3.2-5.3-6.4-5.3C3,0.4,0.1,3.3,0.1,6.9c0,2,0.9,3.9,2.4,5.1c0,0,0,0,0,0l-1.1,4.9c-0.1,0.2,0,0.5,0.1,0.7
			c0.1,0.2,0.4,0.3,0.6,0.3h1.7c0,0.4,0.1,0.8,0.3,1.1c0.3,0.4,0.8,0.7,1.4,0.7c1.1,0,2.1-0.7,2.5-1.8h9.3c0,0.4,0.1,0.8,0.3,1.1
			c0.3,0.4,0.8,0.7,1.4,0.7c1.1,0,2.1-0.7,2.5-1.8h0.1c0.7,0,1.3-0.5,1.5-1.2l0.8-3C24.2,13.2,24,12.7,23.7,12.5L23.7,12.5z
			 M21.6,11.3h-2.7c-0.1,0-0.2,0-0.2-0.1c0-0.1-0.1-0.2,0-0.3L19,9.7c0.1-0.3,0.4-0.6,0.7-0.6h1.8L21.6,11.3L21.6,11.3z M0.9,6.9
			c0-3.2,2.6-5.7,5.7-5.7s5.7,2.6,5.7,5.7c0,3.2-2.6,5.7-5.7,5.7S0.9,10.1,0.9,6.9z M7.4,17.3c-0.2,0.8-1,1.4-1.8,1.4
			c-0.3,0-0.6-0.1-0.8-0.3c-0.2-0.2-0.2-0.6-0.1-0.9c0.2-0.8,1-1.4,1.8-1.4c0.3,0,0.6,0.1,0.8,0.3C7.4,16.7,7.5,17,7.4,17.3
			L7.4,17.3z M8.2,17c0-0.4-0.1-0.8-0.3-1.1c-0.3-0.4-0.8-0.7-1.4-0.7C5.4,15.3,4.4,16,4,17H2.2l1-4.5c1,0.6,2.2,1,3.4,1
			c3.6,0,6.5-2.9,6.5-6.5c0-0.2,0-0.3,0-0.5h4.1L14.4,17L8.2,17L8.2,17z M20.9,17.3c-0.2,0.8-1,1.4-1.8,1.4c-0.3,0-0.6-0.1-0.8-0.3
			c-0.2-0.2-0.2-0.6-0.1-0.9c0.2-0.8,1-1.4,1.8-1.4c0.3,0,0.6,0.1,0.8,0.3C21,16.7,21,17,20.9,17.3L20.9,17.3z M23.3,13.5L23.3,13.5
			l-0.6,0.1c-0.2,0-0.4,0.2-0.4,0.4s0.2,0.4,0.4,0.4H23l-0.6,2.1c-0.1,0.3-0.4,0.6-0.7,0.6c0-0.4-0.1-0.8-0.3-1.1
			c-0.3-0.4-0.8-0.7-1.4-0.7c-1.1,0-2.1,0.7-2.5,1.8h-2.2l0.7-2.7h4.9c0.2,0,0.4-0.2,0.4-0.4c0-0.2-0.2-0.4-0.4-0.4h-4.7l1.7-6.2
			h3.4c0.1,0,0.3,0,0.3,0.2l0,0.7h-1.8c-0.7,0-1.3,0.5-1.5,1.2l-0.4,1.3c-0.1,0.4,0,0.7,0.2,1c0.2,0.3,0.5,0.4,0.9,0.4h2.9l1.4,1
			C23.3,13.2,23.3,13.4,23.3,13.5L23.3,13.5z"/>
		<path class="st1" d="M4.9,9.1c0.1,0,0.2,0,0.3-0.1l0.9-0.9c0.2,0.1,0.4,0.1,0.6,0.1c0.7,0,1.3-0.6,1.3-1.3c0-0.2,0-0.4-0.1-0.6
			L10,4.2c0.2-0.2,0.2-0.4,0-0.6c-0.2-0.2-0.4-0.2-0.6,0L7.2,5.8C7,5.7,6.8,5.7,6.6,5.7c-0.7,0-1.3,0.6-1.3,1.3c0,0.2,0,0.4,0.1,0.6
			L4.6,8.4C4.4,8.6,4.4,8.8,4.6,9C4.7,9.1,4.8,9.1,4.9,9.1L4.9,9.1z M6.6,6.5c0.3,0,0.5,0.2,0.5,0.5c0,0.3-0.2,0.5-0.5,0.5
			c-0.3,0-0.5-0.2-0.5-0.5C6.2,6.7,6.4,6.5,6.6,6.5z"/>
		<path class="st1" d="M6.6,3.4C6.9,3.4,7,3.2,7,3V2.6c0-0.2-0.2-0.4-0.4-0.4c-0.2,0-0.4,0.2-0.4,0.4V3C6.2,3.2,6.4,3.4,6.6,3.4z"/>
		<path class="st1" d="M6.6,10.5c-0.2,0-0.4,0.2-0.4,0.4v0.4c0,0.2,0.2,0.4,0.4,0.4c0.2,0,0.4-0.2,0.4-0.4v-0.4
			C7,10.6,6.9,10.5,6.6,10.5z"/>
		<path class="st1" d="M10.6,7.3H11c0.2,0,0.4-0.2,0.4-0.4c0-0.2-0.2-0.4-0.4-0.4h-0.4c-0.2,0-0.4,0.2-0.4,0.4
			C10.2,7.2,10.3,7.3,10.6,7.3z"/>
		<path class="st1" d="M3.1,6.9c0-0.2-0.2-0.4-0.4-0.4H2.3C2,6.5,1.8,6.7,1.8,6.9c0,0.2,0.2,0.4,0.4,0.4h0.4
			C2.9,7.3,3.1,7.2,3.1,6.9z"/>
	</g>
</g>
</svg>
