<svg width="25" height="24" viewBox="0 0 25 24" fill="none" xmlns="http://www.w3.org/2000/svg">
<g clip-path="url(#clip0_1558_4248)">
<path d="M19.1345 13.6738L19.1312 5.99759L20.2369 4.89184C20.4527 4.67608 20.4527 4.32547 20.2369 4.10972C20.0212 3.89396 19.6706 3.89396 19.4548 4.10972L18.3524 5.2121L10.983 5.2121L1.65148 14.6178C1.39527 14.874 1.25705 15.2145 1.25368 15.5752C1.25368 15.9393 1.39527 16.2764 1.65148 16.5326L8.12756 23.0087C8.38377 23.2649 8.72426 23.4031 9.08498 23.4065C9.44907 23.4065 9.78956 23.2615 10.0491 23.0019L19.1345 13.6738ZM15.4161 9.48341C15.5644 9.48341 15.7026 9.4261 15.8072 9.3216L16.1207 9.00807C16.0836 9.36205 15.7802 9.63849 15.4127 9.64186C15.0217 9.64186 14.7014 9.32159 14.7014 8.93054C14.7014 8.56645 14.9778 8.26304 15.3352 8.22258L15.0217 8.53611C14.8059 8.75186 14.8059 9.10247 15.0217 9.31822C15.1262 9.42273 15.2644 9.48004 15.4127 9.48004L15.4161 9.48341ZM16.2488 7.30899C15.9926 7.17414 15.7094 7.10672 15.4161 7.10335C14.4115 7.10334 13.5956 7.91918 13.5956 8.92379C13.5956 9.92841 14.4115 10.7442 15.4161 10.7442C15.9016 10.7442 16.36 10.5555 16.7039 10.2116C17.0478 9.86773 17.2365 9.40925 17.2365 8.92379C17.2365 8.63387 17.1658 8.34732 17.0309 8.09111L18.022 7.09997L18.022 13.2153L9.25691 22.2164C9.16252 22.3108 9.00744 22.3108 8.91305 22.2164L2.44371 15.7471C2.34932 15.6527 2.34932 15.4976 2.44708 15.3999L11.4516 6.32123L17.2365 6.32123L16.2454 7.31236L16.2488 7.30899Z" fill="white"/>
<path d="M7.76343 14.615C7.53869 14.8397 7.31735 14.9929 7.10623 15.0747C6.8883 15.1564 6.62269 15.2041 6.31963 15.2143L6.18002 15.2177L5.79864 15.9668L8.73051 18.8987L9.60224 18.027L7.72257 16.1473C8.09714 16.052 8.43085 15.8613 8.72029 15.5718C8.74413 15.548 8.76797 15.5241 8.79521 15.4969L9.74185 16.4435L10.5319 15.6535L9.3809 14.5026C9.43198 14.4038 9.48306 14.3187 9.53413 14.2404C9.60224 14.1314 9.68737 14.0259 9.78612 13.9271C9.98702 13.7262 10.1743 13.6275 10.348 13.6309C10.5284 13.6343 10.6919 13.716 10.8519 13.876C11.0256 14.0497 11.1073 14.2131 11.0971 14.3664C11.0869 14.5332 11.0018 14.6933 10.8383 14.8567L10.6681 15.027L11.6045 15.9634L11.7782 15.7898C12.1595 15.3811 12.3673 14.9282 12.3877 14.4311C12.4081 13.9271 12.1936 13.4402 11.7373 12.9839C11.4581 12.7046 11.1482 12.5106 10.8179 12.405C10.4808 12.2994 10.1369 12.2892 9.79974 12.3743C9.46262 12.4595 9.14935 12.6502 8.86672 12.9328C8.69646 13.1031 8.53982 13.3006 8.40701 13.5219L7.97796 13.0928L7.18796 13.8828L7.83835 14.5332C7.81451 14.5571 7.79068 14.5809 7.77024 14.6013L7.76343 14.615Z" fill="white"/>
</g>
<defs>
<clipPath id="clip0_1558_4248">
<rect width="11.919" height="21.9262" fill="white" transform="translate(16.1611 0.0339355) rotate(45)"/>
</clipPath>
</defs>
</svg>
