<?xml version="1.0" encoding="utf-8"?>
<!-- Generator: Adobe Illustrator 27.8.0, SVG Export Plug-In . SVG Version: 6.00 Build 0)  -->
<svg version="1.1" id="Layer_1" xmlns="http://www.w3.org/2000/svg" xmlns:xlink="http://www.w3.org/1999/xlink" x="0px" y="0px"
	 viewBox="0 0 24 21" style="enable-background:new 0 0 24 21;" xml:space="preserve">
<style type="text/css">
	.st0{clip-path:url(#SVGID_00000052074839012964248670000012963227990693377921_);}
	.st1{fill:#000D40;}
</style>
<g>
	<defs>
		<rect id="SVGID_1_" width="24" height="20.7"/>
	</defs>
	<clipPath id="SVGID_00000096048251587470136680000006737222696907556031_">
		<use xlink:href="#SVGID_1_"  style="overflow:visible;"/>
	</clipPath>
	<g style="clip-path:url(#SVGID_00000096048251587470136680000006737222696907556031_);">
		<path class="st1" d="M5.5,6.3c-0.3,0-0.5,0.2-0.5,0.5V8c0,0.3,0.2,0.5,0.5,0.5C5.8,8.5,6,8.3,6,8V6.8C6,6.5,5.8,6.3,5.5,6.3z"/>
		<path class="st1" d="M5.5,9.2c-0.3,0-0.5,0.2-0.5,0.5V11c0,0.3,0.2,0.5,0.5,0.5C5.8,11.5,6,11.3,6,11V9.8C6,9.5,5.8,9.2,5.5,9.2z"
			/>
		<path class="st1" d="M5.5,12.2c-0.3,0-0.5,0.2-0.5,0.5v1.2c0,0.3,0.2,0.5,0.5,0.5c0.3,0,0.5-0.2,0.5-0.5v-1.2
			C6,12.4,5.8,12.2,5.5,12.2z"/>
		<path class="st1" d="M3.7,0C3.1,0.1,2.5,0.5,2.3,1.1L1.6,3.3C0.7,3.4,0,4.1,0,5v2.2c0,0.2,0.2,0.4,0.4,0.5
			c0.7,0.2,1.3,1.1,1.3,2.1c0,1-0.6,1.9-1.3,2.1C0.2,12,0,12.2,0,12.5v3.3c0,1,0.8,1.7,1.7,1.7h8.6l9.3,3.2c0.9,0.3,1.8-0.2,2.1-1
			l0.7-2.1c0.9-0.1,1.6-0.8,1.6-1.7v-3.3c0-0.2-0.2-0.4-0.4-0.5c-0.7-0.2-1.3-1.1-1.3-2.1c0-1,0.6-1.9,1.3-2.1
			C23.8,7.6,24,7.4,24,7.2V5c0-1-0.8-1.7-1.7-1.7h-8.6L4.4,0.1C4.2,0,3.9,0,3.7,0z M3.8,1.1c0.1,0,0.1,0,0.2,0
			c2.1,0.7,4.2,1.5,6.3,2.2H2.7l0.6-1.8C3.4,1.2,3.6,1.1,3.8,1.1L3.8,1.1z M1.7,4.4h3.2v0.5c0,0.3,0.2,0.5,0.5,0.5
			C5.8,5.5,6,5.2,6,4.9V4.4h16.3c0.4,0,0.6,0.3,0.6,0.6v1.9c-1,0.5-1.6,1.7-1.6,3c0,1.3,0.6,2.4,1.6,3v2.9c0,0.4-0.3,0.6-0.6,0.6H6
			c0-0.2,0-0.4,0-0.6c0-0.3-0.2-0.5-0.5-0.5c-0.3,0-0.5,0.2-0.5,0.5c0,0.2,0,0.4,0,0.6H1.7c-0.4,0-0.6-0.3-0.6-0.6v-2.9
			c1-0.5,1.6-1.7,1.6-3c0-1.3-0.6-2.4-1.6-3V5C1.1,4.7,1.4,4.4,1.7,4.4z M13.7,17.5h7.5l-0.6,1.8c-0.1,0.3-0.4,0.4-0.7,0.3
			L13.7,17.5L13.7,17.5z"/>
		<path class="st1" d="M16.8,11.2c1,0,1.8,0.8,1.8,1.8s-0.8,1.8-1.8,1.8c-1,0-1.8-0.8-1.8-1.8S15.8,11.2,16.8,11.2z M16.8,12.3
			c-0.4,0-0.7,0.3-0.7,0.7s0.3,0.7,0.7,0.7c0.4,0,0.7-0.3,0.7-0.7S17.2,12.3,16.8,12.3z"/>
		<path class="st1" d="M11.6,6c1,0,1.8,0.8,1.8,1.8c0,1-0.8,1.8-1.8,1.8S9.8,8.8,9.8,7.8C9.8,6.8,10.6,6,11.6,6z M11.6,7.1
			c-0.4,0-0.7,0.3-0.7,0.7s0.3,0.7,0.7,0.7c0.4,0,0.7-0.3,0.7-0.7S12,7.1,11.6,7.1z"/>
		<path class="st1" d="M16.4,7.4l-5.2,5.2c-0.2,0.2-0.2,0.6,0,0.8c0.2,0.2,0.6,0.2,0.8,0l5.2-5.2c0.2-0.2,0.2-0.6,0-0.8
			C16.9,7.2,16.6,7.2,16.4,7.4z"/>
	</g>
</g>
</svg>
