<?xml version="1.0" encoding="utf-8"?>
<!-- Generator: Adobe Illustrator 27.8.0, SVG Export Plug-In . SVG Version: 6.00 Build 0)  -->
<svg version="1.1" id="Layer_1" xmlns="http://www.w3.org/2000/svg" xmlns:xlink="http://www.w3.org/1999/xlink" x="0px" y="0px"
	 viewBox="0 0 24 24" style="enable-background:new 0 0 24 24;" xml:space="preserve">
<style type="text/css">
	.st0{clip-path:url(#SVGID_00000121248012360209154420000000781397660410721693_);}
	.st1{fill:#000D40;}
</style>
<g>
	<defs>
		<rect id="SVGID_1_" width="24" height="24"/>
	</defs>
	<clipPath id="SVGID_00000109731702896343373750000010312269779283466131_">
		<use xlink:href="#SVGID_1_"  style="overflow:visible;"/>
	</clipPath>
	<g style="clip-path:url(#SVGID_00000109731702896343373750000010312269779283466131_);">
		<path class="st1" d="M22.5,16.9c0,0-4.5-3.2-5.8-3c-0.6,0.1-0.9,0.5-1.6,1.3c-0.1,0.1-0.4,0.4-0.6,0.7c-0.4-0.1-0.8-0.3-1.2-0.5
			c-2.1-1-3.7-2.7-4.7-4.7c-0.2-0.4-0.4-0.8-0.5-1.2c0.2-0.2,0.5-0.5,0.7-0.6c0.8-0.7,1.2-1,1.3-1.6c0.2-1.2-3-5.7-3-5.8
			C6.9,1.3,6.7,1.1,6.5,1C6.3,0.8,6,0.8,5.8,0.8c-1.3,0-5,4.8-5,5.6c0,0,0.1,4.9,6,10.9c6,5.9,10.8,6,10.9,6c0.8,0,5.6-3.7,5.6-5
			c0-0.3-0.1-0.5-0.2-0.7C22.9,17.3,22.7,17.1,22.5,16.9z M17.5,21.7c-0.7-0.1-4.7-0.6-9.7-5.5c-5-5.1-5.5-9.1-5.5-9.7
			c1-1.5,2.2-2.9,3.5-4.2c0,0,0.1,0.1,0.1,0.1c1,1.4,1.9,2.9,2.7,4.5C8.3,7.2,8.1,7.5,7.8,7.7C7.4,8,7,8.3,6.7,8.7
			C6.6,8.8,6.6,8.9,6.6,9c0,0.1,0,0.2,0,0.3c0.2,0.7,0.4,1.4,0.7,2c1.2,2.4,3.1,4.3,5.4,5.4c0.6,0.3,1.3,0.6,2,0.7
			c0.1,0,0.2,0,0.3,0c0.1,0,0.2-0.1,0.3-0.1c0.4-0.3,0.8-0.7,1.1-1.1c0.2-0.3,0.5-0.7,0.7-0.8c1.6,0.7,3.1,1.6,4.6,2.7
			c0.1,0.1,0.1,0.1,0.1,0.1C20.5,19.6,19.1,20.8,17.5,21.7L17.5,21.7z"/>
		<path class="st1" d="M17.2,11.2h1.5c0-1.6-0.6-3.1-1.8-4.2c-1.1-1.1-2.6-1.8-4.2-1.8v1.5c1.2,0,2.3,0.5,3.2,1.3
			C16.8,8.9,17.2,10.1,17.2,11.2z"/>
		<path class="st1" d="M21,11.2h1.5c0-2.6-1-5.1-2.9-6.9c-1.8-1.8-4.3-2.9-6.9-2.9V3c2.2,0,4.3,0.9,5.8,2.4C20.1,7,21,9.1,21,11.2z"
			/>
	</g>
</g>
</svg>
