<?xml version="1.0" encoding="utf-8"?>
<!-- Generator: Adobe Illustrator 27.8.0, SVG Export Plug-In . SVG Version: 6.00 Build 0)  -->
<svg version="1.1" id="Layer_1" xmlns="http://www.w3.org/2000/svg" xmlns:xlink="http://www.w3.org/1999/xlink" x="0px" y="0px"
	 viewBox="0 0 35 16" style="enable-background:new 0 0 35 16;" xml:space="preserve">
<style type="text/css">
	.st0{clip-path:url(#SVGID_00000164471680739747400160000002463325495352593317_);}
	.st1{fill:#000D40;}
</style>
<g>
	<defs>
		<rect id="SVGID_1_" width="34.2" height="16"/>
	</defs>
	<clipPath id="SVGID_00000012460396360446375380000001952083814667289476_">
		<use xlink:href="#SVGID_1_"  style="overflow:visible;"/>
	</clipPath>
	<g style="clip-path:url(#SVGID_00000012460396360446375380000001952083814667289476_);">
		<path class="st1" d="M32.6,0H12.3c-0.9,0-1.6,0.7-1.6,1.6v12.9c0,0.9,0.7,1.6,1.6,1.6h20.4c0.9,0,1.6-0.7,1.6-1.6V1.6
			C34.2,0.7,33.5,0,32.6,0z M12.3,1h20.4c0.2,0,0.4,0.1,0.5,0.4l-8.8,6.8c-1.1,0.9-2.7,0.9-3.8,0l-8.8-6.8C11.8,1.2,12,1,12.3,1
			L12.3,1z M11.7,2.6l7,5.4l-7,5.4V2.6z M32.6,15H12.3c-0.2,0-0.4-0.1-0.5-0.4l7.8-6L19.9,9c0.7,0.6,1.6,0.9,2.5,0.9
			c0.9,0,1.8-0.3,2.5-0.9l0.4-0.3l7.8,6C33.1,14.9,32.9,15,32.6,15L32.6,15z M33.2,13.4l-7-5.4l7-5.4V13.4z"/>
		<path class="st1" d="M9.1,9.1H2.6c-0.3,0-0.5,0.2-0.5,0.5c0,0.3,0.2,0.5,0.5,0.5h6.4c0.3,0,0.5-0.2,0.5-0.5
			C9.6,9.3,9.3,9.1,9.1,9.1L9.1,9.1z"/>
		<path class="st1" d="M9.1,11.8H0.5C0.2,11.8,0,12,0,12.3c0,0.3,0.2,0.5,0.5,0.5h8.6c0.3,0,0.5-0.2,0.5-0.5
			C9.6,12,9.3,11.8,9.1,11.8z"/>
		<path class="st1" d="M9.1,6.4H4.8c-0.3,0-0.5,0.2-0.5,0.5c0,0.3,0.2,0.5,0.5,0.5h4.3c0.3,0,0.5-0.2,0.5-0.5
			C9.6,6.7,9.3,6.4,9.1,6.4z"/>
		<path class="st1" d="M9.1,3.7H6.9C6.7,3.7,6.4,4,6.4,4.3c0,0.3,0.2,0.5,0.5,0.5h2.1c0.3,0,0.5-0.2,0.5-0.5C9.6,4,9.3,3.7,9.1,3.7z
			"/>
	</g>
</g>
</svg>
