<?xml version="1.0" encoding="utf-8"?>
<!-- Generator: Adobe Illustrator 27.8.0, SVG Export Plug-In . SVG Version: 6.00 Build 0)  -->
<svg version="1.1" id="Layer_1" xmlns="http://www.w3.org/2000/svg" xmlns:xlink="http://www.w3.org/1999/xlink" x="0px" y="0px"
	 viewBox="0 0 31 24" style="enable-background:new 0 0 31 24;" xml:space="preserve">
<style type="text/css">
	.st0{clip-path:url(#SVGID_00000088852087331003629100000010099613060835844750_);}
	.st1{fill:#000D40;}
</style>
<g>
	<defs>
		<rect id="SVGID_1_" x="0.1" width="30.9" height="24"/>
	</defs>
	<clipPath id="SVGID_00000106140852658334743260000017442492879868885393_">
		<use xlink:href="#SVGID_1_"  style="overflow:visible;"/>
	</clipPath>
	<g style="clip-path:url(#SVGID_00000106140852658334743260000017442492879868885393_);">
		<path class="st1" d="M30.6,5.8L20.3,0.1c-0.2-0.1-0.4-0.1-0.6,0l-3.9,2.1c-0.1,0-0.2,0.1-0.2,0.1L9.3,5.8C9.1,5.9,9,6.1,9,6.3v1.2
			H2c-0.3,0-0.6,0.3-0.6,0.6c0,0.3,0.3,0.6,0.6,0.6h7v2.2H5.5c-0.3,0-0.6,0.3-0.6,0.6c0,0.3,0.3,0.6,0.6,0.6H9v3.1H3.9
			c-0.3,0-0.6,0.3-0.6,0.6c0,0.3,0.3,0.6,0.6,0.6H9v1.2c0,0.2,0.1,0.4,0.3,0.5l10.4,5.7c0.1,0,0.2,0.1,0.3,0.1c0.1,0,0.2,0,0.3-0.1
			l10.4-5.7c0.2-0.1,0.3-0.3,0.3-0.5V15c0,0,0,0,0,0c0,0,0,0,0,0V6.3C30.9,6.1,30.8,5.9,30.6,5.8L30.6,5.8z M20,1.3l9.1,5l-2.8,1.5
			l-9.1-5L20,1.3z M16,3.5l9.1,5l-1,0.5L15,4L16,3.5L16,3.5z M25.7,9.5v2.2l-1,0.6v-2.2L25.7,9.5z M19.4,22.4l-9.2-5v-10l9.2,5V22.4
			z M20,11.3l-9.1-5l2.9-1.6l9.1,5L20,11.3L20,11.3z M29.7,15v2.3l-9.2,5v-10l2.9-1.6v2.5c0,0.2,0.1,0.4,0.3,0.5
			c0.1,0.1,0.2,0.1,0.3,0.1c0.1,0,0.2,0,0.3-0.1l2.2-1.2c0.2-0.1,0.3-0.3,0.3-0.5V8.9l2.8-1.6V15C29.7,15,29.7,15,29.7,15
			C29.7,15,29.7,15,29.7,15L29.7,15z"/>
		<path class="st1" d="M1.5,15.3H0.7c-0.3,0-0.6,0.3-0.6,0.6c0,0.3,0.3,0.6,0.6,0.6h0.9c0.3,0,0.6-0.3,0.6-0.6
			C2.1,15.5,1.9,15.3,1.5,15.3z"/>
		<path class="st1" d="M3.7,11.5c0-0.2-0.1-0.3-0.2-0.4c-0.1-0.1-0.3-0.2-0.4-0.2S2.8,11,2.7,11.1c-0.1,0.1-0.2,0.3-0.2,0.4
			s0.1,0.3,0.2,0.4c0.1,0.1,0.3,0.2,0.4,0.2s0.3-0.1,0.4-0.2C3.7,11.8,3.7,11.7,3.7,11.5z"/>
	</g>
</g>
</svg>
