<?xml version="1.0" encoding="utf-8"?>
<!-- Generator: Adobe Illustrator 27.8.0, SVG Export Plug-In . SVG Version: 6.00 Build 0)  -->
<svg version="1.1" id="Layer_1" xmlns="http://www.w3.org/2000/svg" xmlns:xlink="http://www.w3.org/1999/xlink" x="0px" y="0px"
	 viewBox="0 0 39 32" style="enable-background:new 0 0 39 32;" xml:space="preserve">
<style type="text/css">
	.st0{clip-path:url(#SVGID_00000123438866146680279550000004284885708964194989_);}
	.st1{fill:#000D40;}
</style>
<g>
	<defs>
		<rect id="SVGID_1_" y="2" width="38.2" height="28"/>
	</defs>
	<clipPath id="SVGID_00000135655676149466985270000005960331162351871653_">
		<use xlink:href="#SVGID_1_"  style="overflow:visible;"/>
	</clipPath>
	<g style="clip-path:url(#SVGID_00000135655676149466985270000005960331162351871653_);">
		<path class="st1" d="M12.7,19.1c2.4,0,4.4-2,4.4-4.4c0-2.4-2-4.4-4.4-4.4s-4.4,2-4.4,4.4C8.3,17.1,10.3,19.1,12.7,19.1z
			 M12.7,11.6c1.7,0,3.1,1.4,3.1,3.1c0,1.7-1.4,3.1-3.1,3.1c-1.7,0-3.1-1.4-3.1-3.1C9.6,13,11,11.6,12.7,11.6z"/>
		<path class="st1" d="M37.5,19.8H25.5v-5.1c0-0.8-0.1-1.6-0.2-2.4l1.2-0.6c0,0,0.1,0,0.1-0.1c0,0,0.1,0,0.1-0.1l0,0l0,0
			c0.8-0.6,1.1-1.7,0.6-2.5l-2.1-3.6c-0.5-0.9-1.7-1.2-2.6-0.7l-1.2,0.7C19.1,3.3,16.1,2,12.7,2C5.7,2,0,7.7,0,14.7v10.8
			c0,1,0.9,1.9,1.9,1.9h25.4c0,0,0,0,0.1,0h9.5v1.9c0,0.8,1.3,0.8,1.3,0v-8.9C38.2,20.1,37.9,19.8,37.5,19.8L37.5,19.8z M23.2,5.8
			c0.4-0.2,0.7,0,0.9,0.2l2.1,3.6c0.2,0.3,0.1,0.6-0.2,0.8l-1.1,0.6c-0.5-1.8-1.4-3.4-2.6-4.8L23.2,5.8L23.2,5.8z M21.3,26.2H1.9
			c-0.4,0-0.6-0.3-0.6-0.6V14.7c0-6.4,5.1-11.5,11.5-11.5c6.4,0,11.5,5.1,11.5,11.5v11.5L21.3,26.2L21.3,26.2z M36.9,26.2h-1.3V23
			c0-0.8-1.3-0.8-1.3,0v3.2h-1.3v-1.9c0-0.8-1.3-0.8-1.3,0v1.9h-1.3V23c0-0.8-1.3-0.8-1.3,0v3.2H28v-1.9c0-0.4-0.3-0.7-0.7-0.6
			c-0.3,0-0.6,0.3-0.6,0.6v1.9h-1.3v-5.1h11.5L36.9,26.2L36.9,26.2z"/>
		<path class="st1" d="M21.6,14.3c-0.2-3.4-2.3-6.3-5.2-7.6c-1.1-0.5-2.4-0.8-3.7-0.8c-1.5,0-3,0.4-4.3,1.1c0,0-0.1,0-0.1,0.1
			c0,0-0.1,0-0.1,0c0,0-0.1,0-0.1,0.1c0,0,0,0,0,0c-0.9,0.5-1.7,1.2-2.3,2c0,0,0,0-0.1,0.1c-0.7,0.9-1.3,1.9-1.6,3.1c0,0,0,0,0,0.1
			c0,0.1,0,0.2-0.1,0.2c0,0.1,0,0.1,0,0.2c0,0.1,0,0.1,0,0.2C4,13,4,13.1,4,13.1c0,0,0,0.1,0,0.1c0,0.1,0,0.2,0,0.2c0,0,0,0.1,0,0.1
			c0,0.1,0,0.2,0,0.3c0,0,0,0.1,0,0.1c0,0.1,0,0.2,0,0.3c0,0,0,0,0,0.1c0,0.1,0,0.2,0,0.3c0,0,0,0,0,0c0,2.3,0.8,4.3,2.2,5.9
			c1.6,1.8,4,3,6.7,3c1.4,0,2.7-0.3,3.9-0.9c2.8-1.4,4.9-4.2,5-7.5c0-0.2,0-0.3,0-0.5C21.6,14.6,21.6,14.4,21.6,14.3L21.6,14.3z
			 M8.7,8.2c0,0,0.1,0,0.1-0.1c1.1-0.7,2.5-1.1,3.9-1.1c4.2,0,7.6,3.4,7.6,7.6c0,0,0,0,0,0c0,4.2-3.4,7.6-7.6,7.6
			c-4.2,0-7.6-3.4-7.6-7.6c0-1.8,0.6-3.5,1.7-4.8c0,0,0.1-0.1,0.1-0.1C7.4,9.2,8,8.7,8.7,8.2z"/>
	</g>
</g>
</svg>
