<?xml version="1.0" encoding="utf-8"?>
<!-- Generator: Adobe Illustrator 27.8.0, SVG Export Plug-In . SVG Version: 6.00 Build 0)  -->
<svg version="1.1" id="Layer_1" xmlns="http://www.w3.org/2000/svg" xmlns:xlink="http://www.w3.org/1999/xlink" x="0px" y="0px"
	 viewBox="0 0 24 24" style="enable-background:new 0 0 24 24;" xml:space="preserve">
<style type="text/css">
	.st0{clip-path:url(#SVGID_00000167358231529445427170000008936488882301512355_);}
	.st1{fill:#000D40;}
</style>
<g>
	<defs>
		<rect id="SVGID_1_" width="24" height="24"/>
	</defs>
	<clipPath id="SVGID_00000024003658526718538560000010839454213119219328_">
		<use xlink:href="#SVGID_1_"  style="overflow:visible;"/>
	</clipPath>
	<g style="clip-path:url(#SVGID_00000024003658526718538560000010839454213119219328_);">
		<path class="st1" d="M21.7,0H7.8C6.5,0,5.4,1.1,5.4,2.3v8.3C2.3,11.2,0,14,0,17.2C0,21,3,24,6.7,24h14.9c1.3,0,2.3-1.1,2.3-2.3
			V2.3C24,1.1,22.9,0,21.7,0z M0.9,17.2c0-3.2,2.6-5.8,5.8-5.8s5.8,2.6,5.8,5.8c0,3.2-2.6,5.8-5.8,5.8S0.9,20.4,0.9,17.2z M8.6,10.4
			V9.3c0-0.3,0.2-0.5,0.5-0.5h1.1c0.3,0,0.5,0.2,0.5,0.5v1.1c0,0.3-0.2,0.5-0.5,0.5H9.1C8.8,10.9,8.6,10.7,8.6,10.4z M23.1,21.6
			c0,0.8-0.6,1.4-1.4,1.4H10.2c1.1-0.7,2-1.6,2.6-2.8v0.2c0,0.8,0.6,1.4,1.4,1.4h1.1c0.8,0,1.4-0.6,1.4-1.4v-1.1
			c0-0.8-0.6-1.4-1.4-1.4h-1.1c-0.3,0-0.5,0.1-0.7,0.2c0-0.3,0.1-0.6,0.1-1c0-0.2,0-0.4,0-0.6c0.2,0.1,0.4,0.2,0.7,0.2h1.1
			c0.8,0,1.4-0.6,1.4-1.4v-1.1c0-0.8-0.6-1.4-1.4-1.4h-1.1c-0.7,0-1.3,0.6-1.4,1.3c-0.5-1-1.2-1.8-2.1-2.5c0.6-0.2,1-0.7,1-1.3V9.3
			c0-0.8-0.6-1.4-1.4-1.4H9.1c-0.8,0-1.4,0.6-1.4,1.4v1.1c0,0.1,0,0.1,0,0.2c-0.3,0-0.6-0.1-1-0.1c-0.1,0-0.2,0-0.4,0V2.3
			c0-0.8,0.6-1.4,1.4-1.4h13.9c0.8,0,1.4,0.6,1.4,1.4V21.6z M13.7,20.5v-1.1c0-0.3,0.2-0.5,0.5-0.5h1.1c0.3,0,0.5,0.2,0.5,0.5v1.1
			c0,0.3-0.2,0.5-0.5,0.5h-1.1C13.9,21,13.7,20.8,13.7,20.5z M13.7,15.5v-1.1c0-0.3,0.2-0.5,0.5-0.5h1.1c0.3,0,0.5,0.2,0.5,0.5v1.1
			c0,0.3-0.2,0.5-0.5,0.5h-1.1C13.9,15.9,13.7,15.7,13.7,15.5z"/>
		<path class="st1" d="M21.3,2.1H8.2c-0.3,0-0.5,0.2-0.5,0.5v3.7c0,0.3,0.2,0.5,0.5,0.5h13.1c0.3,0,0.5-0.2,0.5-0.5V2.5
			C21.8,2.3,21.5,2.1,21.3,2.1z M20.8,5.8H8.6V3h12.2L20.8,5.8L20.8,5.8z"/>
		<path class="st1" d="M15.3,7.9h-1.1c-0.8,0-1.4,0.6-1.4,1.4v1.1c0,0.8,0.6,1.4,1.4,1.4h1.1c0.8,0,1.4-0.6,1.4-1.4V9.3
			C16.7,8.5,16.1,7.9,15.3,7.9z M15.8,10.4c0,0.3-0.2,0.5-0.5,0.5h-1.1c-0.3,0-0.5-0.2-0.5-0.5V9.3c0-0.3,0.2-0.5,0.5-0.5h1.1
			c0.3,0,0.5,0.2,0.5,0.5V10.4z"/>
		<path class="st1" d="M20.3,7.9h-1.1c-0.8,0-1.4,0.6-1.4,1.4v1.1c0,0.8,0.6,1.4,1.4,1.4h1.1c0.8,0,1.4-0.6,1.4-1.4V9.3
			C21.8,8.5,21.1,7.9,20.3,7.9z M20.8,10.4c0,0.3-0.2,0.5-0.5,0.5h-1.1c-0.3,0-0.5-0.2-0.5-0.5V9.3c0-0.3,0.2-0.5,0.5-0.5h1.1
			c0.3,0,0.5,0.2,0.5,0.5V10.4z"/>
		<path class="st1" d="M20.3,12.9h-1.1c-0.8,0-1.4,0.6-1.4,1.4v6.2c0,0.8,0.6,1.4,1.4,1.4h1.1c0.8,0,1.4-0.6,1.4-1.4v-6.2
			C21.8,13.6,21.1,12.9,20.3,12.9z M20.8,20.5c0,0.3-0.2,0.5-0.5,0.5h-1.1c-0.3,0-0.5-0.2-0.5-0.5v-6.2c0-0.3,0.2-0.5,0.5-0.5h1.1
			c0.3,0,0.5,0.2,0.5,0.5V20.5z"/>
		<path class="st1" d="M8.3,14.2c-0.2-0.1-0.5,0-0.6,0.2l-2.6,5.3c-0.1,0.2,0,0.5,0.2,0.6c0.1,0,0.1,0,0.2,0c0.2,0,0.3-0.1,0.4-0.3
			l2.6-5.3C8.6,14.5,8.5,14.3,8.3,14.2L8.3,14.2z"/>
		<path class="st1" d="M5.6,13.9c-0.6-0.6-1.5-0.6-2.1,0c-0.6,0.6-0.6,1.5,0,2.1c0.3,0.3,0.7,0.4,1.1,0.4c0.4,0,0.8-0.1,1.1-0.4
			C6.1,15.4,6.1,14.5,5.6,13.9L5.6,13.9z M4.9,15.4c-0.2,0.2-0.6,0.2-0.8,0c-0.2-0.2-0.2-0.6,0-0.8c0.1-0.1,0.3-0.2,0.4-0.2
			c0.1,0,0.3,0.1,0.4,0.2C5.1,14.8,5.1,15.1,4.9,15.4L4.9,15.4z"/>
		<path class="st1" d="M8,18.5C7.4,19,7.4,20,8,20.6C8.3,20.9,8.7,21,9.1,21c0.4,0,0.8-0.1,1.1-0.4c0.6-0.6,0.6-1.5,0-2.1
			C9.5,17.9,8.6,17.9,8,18.5L8,18.5z M9.5,19.9c-0.2,0.2-0.6,0.2-0.8,0c-0.2-0.2-0.2-0.6,0-0.8C8.8,19,8.9,19,9.1,19
			c0.1,0,0.3,0.1,0.4,0.2C9.7,19.3,9.7,19.7,9.5,19.9L9.5,19.9z"/>
	</g>
</g>
</svg>
