<svg width="24" height="24" viewBox="0 0 24 24" fill="none" xmlns="http://www.w3.org/2000/svg">
<g clip-path="url(#clip0_1575_1286)">
<path d="M17.993 8.05491C17.6235 7.66538 17.0076 7.64822 16.6175 8.01858L10.406 13.9093L7.44336 10.8675C7.06812 10.4825 6.45289 10.474 6.06758 10.8493C5.68259 11.2242 5.67448 11.8401 6.04939 12.2251L9.68183 15.9545C9.87219 16.1501 10.1252 16.2487 10.3788 16.2487C10.6195 16.2487 10.8601 16.1598 11.0486 15.9818L17.9567 9.43041C18.3465 9.06066 18.363 8.44477 17.993 8.05491Z" fill="#058822"/>
<path d="M12 0C5.38312 0 0 5.38312 0 12C0 18.6169 5.38312 24 12 24C18.6169 24 24 18.6169 24 12C24 5.38312 18.6169 0 12 0ZM12 22.0541C6.45633 22.0541 1.94592 17.544 1.94592 12C1.94592 6.45633 6.45628 1.94592 12 1.94592C17.544 1.94592 22.0541 6.45628 22.0541 12C22.0541 17.544 17.544 22.0541 12 22.0541Z" fill="#058822"/>
</g>
<defs>
<clipPath id="clip0_1575_1286">
<rect width="24" height="24" fill="white"/>
</clipPath>
</defs>
</svg>
