<svg width="160" height="100" viewBox="10 0 160 100" fill="none" xmlns="http://www.w3.org/2000/svg">
<g clip-path="url(#clip0_158_47)">
    <rect x="21.7881" y="21.3229" width="116.071" height="57.3542" rx="14.5521" fill="white" stroke="#D9D9D9" stroke-width="2.64583"></rect>
<path d="M3.534 22.059C3.534 23.028 2.793 23.826 1.767 23.826C0.798 23.826 0 23.085 0 22.059V12.369C0.057 4.04701 6.099 0.114014 11.913 0.114014C13.794 0.114014 15.561 0.456014 17.1 1.19701C17.67 1.48201 18.069 2.10901 18.069 2.79301C18.069 3.76201 17.328 4.56001 16.302 4.56001C16.017 4.56001 15.789 4.50301 15.561 4.44601C14.421 3.93301 13.167 3.70501 11.856 3.70501C7.581 3.70501 3.477 6.38398 3.477 12.426V22.059H3.534Z" fill="#363538"/>
<path d="M20.6911 2.73591C20.5771 2.50791 20.5771 2.27991 20.5771 2.05191C20.5771 1.36791 20.9761 0.683912 21.6601 0.398912C21.8881 0.284912 22.1161 0.284912 22.3441 0.284912C23.0281 0.284912 23.7121 0.683912 23.9971 1.36791L30.8941 17.4989L37.7341 1.36791C38.0191 0.683912 38.7031 0.284912 39.3871 0.284912C39.6151 0.284912 39.9001 0.341912 40.0711 0.398912C40.7551 0.683912 41.1541 1.25391 41.1541 2.05191C41.1541 2.33691 41.0971 2.56491 41.0401 2.79291L32.4901 22.7429C32.2051 23.4269 31.6351 23.8259 30.8371 23.8259C30.0391 23.8259 29.4691 23.4839 29.1841 22.7429L20.6911 2.73591Z" fill="#363538"/>
<path d="M43.6619 2.73591C43.5479 2.50791 43.5479 2.27991 43.5479 2.05191C43.5479 1.36791 43.9469 0.683912 44.6309 0.398912C44.8589 0.284912 45.0869 0.284912 45.3149 0.284912C45.9989 0.284912 46.6829 0.683912 46.9679 1.36791L53.8649 17.4989L60.7046 1.36791C60.9896 0.683912 61.6736 0.284912 62.3576 0.284912C62.5856 0.284912 62.8136 0.341912 63.0416 0.398912C63.7256 0.683912 64.1246 1.25391 64.1246 2.05191C64.1246 2.33691 64.0676 2.56491 64.0106 2.79291L55.5179 22.8569C55.2329 23.5409 54.6629 23.9399 53.8649 23.9399C53.0669 23.9399 52.4969 23.5979 52.2119 22.8569L43.6619 2.73591Z" fill="#363538"/>
<path d="M110.352 3.53391C112.347 5.52891 113.658 8.37891 113.658 12.2549C113.658 20.3489 107.844 24.2249 102.087 24.2249C99.0656 24.2249 96.1586 23.1989 93.9356 21.0899V32.6039C93.9356 33.5729 93.1946 34.3139 92.2256 34.3139C91.2566 34.3139 90.5156 33.5729 90.5156 32.6039V12.2549C90.5156 4.16091 96.4436 0.284912 102.087 0.284912C104.025 0.284912 106.02 0.740912 107.787 1.65291L105.051 4.16091C104.139 3.81891 103.113 3.70491 102.087 3.70491C97.9826 3.70491 93.9356 6.26991 93.9356 12.3689C93.9356 18.2399 98.0396 20.8049 102.087 20.8049C106.248 20.8049 110.238 18.1829 110.238 12.2549C110.238 10.0889 109.668 8.32191 108.813 7.01091L110.352 3.53391Z" fill="#363538"/>
<path d="M77.3489 24.0542C70.9079 24.0542 67.0889 19.0952 67.0889 14.3642V1.93814C67.0889 0.969143 67.8869 0.171143 68.8559 0.171143C69.8249 0.171143 70.6229 0.969143 70.6229 1.93814V14.3642C70.6229 16.9292 72.7319 20.5201 77.3489 20.5201C82.0229 20.5201 84.1319 16.9292 84.1319 14.3642V1.93814C84.1319 0.969143 84.9299 0.171143 85.8989 0.171143C86.8679 0.171143 87.6659 0.969143 87.6659 1.93814V14.3642C87.6089 19.0952 83.7899 24.0542 77.3489 24.0542Z" fill="#363538"/>
<path d="M109.098 2.50806L96.0449 14.421C96.0449 14.421 96.4439 16.017 98.0969 17.385C99.7499 18.753 101.688 18.81 101.688 18.81L109.098 2.50806Z" fill="#408597"/>
</g>
<defs>
<clipPath id="clip0_158_47">
<rect width="114" height="35" fill="white"/>
</clipPath>
</defs>
</svg>
