<?xml version="1.0" encoding="UTF-8"?><svg id="Layer_1" xmlns="http://www.w3.org/2000/svg" width="19.5" height="19.6" viewBox="0 0 19.5 19.6"><defs><style>.cls-1{fill:#000d40;stroke-width:0px;}</style></defs><path id="Vector" class="cls-1" d="m9.8,0c-2,0-3.9.6-5.5,1.6-1.6,1.1-2.8,2.6-3.6,4.4C0,7.8-.2,9.8.2,11.7c.4,1.9,1.3,3.6,2.7,5,1.4,1.4,3.1,2.3,5,2.7,1.9.4,3.9.2,5.6-.6,1.8-.7,3.3-2,4.4-3.6s1.6-3.5,1.6-5.4c0-2.6-1-5.1-2.9-6.9-1.8-1.9-4.3-2.9-6.8-2.9Zm0,15.8c-.2,0-.4-.1-.6-.2-.2-.1-.3-.3-.4-.5-.1-.2-.1-.4-.1-.6s.2-.4.3-.6c.2-.2.4-.3.6-.3s.4,0,.6.1c.2.1.4.2.5.4s.2.4.2.6c0,.3-.1.6-.3.8-.3.1-.6.3-.8.3Zm.7-4.6h0c0,.3-.1.5-.2.6-.2.1-.4.2-.5.2-.2,0-.4-.1-.5-.2-.2-.2-.3-.4-.3-.6v-.8c0-.2.1-.4.2-.5.1-.1.3-.2.5-.2,1.3.1,2.3-.8,2.3-1.8s-1-1.9-2.2-1.9c-1.3,0-2.3.8-2.3,1.9v.4c0,.2-.1.4-.2.5-.2.1-.4.2-.5.2-.2,0-.4-.1-.6-.2-.1-.2-.2-.4-.2-.6v-.3c0-1.9,1.7-3.4,3.8-3.4s3.8,1.5,3.8,3.4c-.1,1.6-1.4,3-3.1,3.3Z"/></svg>