<svg version="1.1" id="Camada_1" xmlns="http://www.w3.org/2000/svg" x="0" y="0" viewBox="0 0 3000 574.7" style="enable-background:new 0 0 3000 574.7" xml:space="preserve"><style>.st0{fill-rule:evenodd;clip-rule:evenodd;fill:#232f3e}</style><g id="Symbols"><g id="amazonpay-logo-rgb_clr"><path id="Shape" class="st0" d="M233.3 332.9c-3.9 3.4-9.5 3.9-13.9 1.4-19.6-16.3-23.1-23.8-33.8-39.3-32.4 33-55.4 42.9-97.3 42.9-49.7 0-88.3-30.7-88.3-92 0-47.9 26.1-80.4 62.7-96.4 32-14 76.7-16.6 110.9-20.5v-7.6c0-14 1.1-30.7-7.2-42.8-7.2-10.9-20.9-15.3-33.1-15.3-22.5 0-42.6 11.5-47.5 35.4-.6 5.6-4.9 10-10.4 10.9l-56.7-6.2c-2.8-.4-5.4-2-7-4.3-1.7-2.3-2.3-5.2-1.7-8C23 21.7 85.7.8 141.8.8c28.7 0 66.2 7.6 88.8 29.3 28.7 26.8 26.1 62.7 26.1 101.6v91.9c0 27.7 11.5 39.8 22.3 54.7 3.8 5.2 4.6 11.7 0 15.7-12.1 10.1-33.5 28.7-45.2 39.2l-.5-.3zm-59.5-143.8c0 23 .5 42.1-11 62.7-9.4 16.6-24.3 26.8-40.9 26.8-22.6 0-35.8-17.2-35.8-42.8 0-50.2 45.1-59.4 87.7-59.4v12.8-.1z"/><path id="Path" class="st0" d="M394.9 330.6h-59c-5.5-.3-9.9-4.5-10.4-10V17.8c.2-6.1 5.2-10.9 11.3-10.8h55c5.6.3 10.1 4.8 10.4 10.4V57h1.1C417.6 18.7 444.6.9 480.9.9s60 17.8 76.6 56.1c11.1-29.5 37.1-50.7 68.2-55.5 31.1-4.8 62.4 7.5 81.8 32.2 18.7 25.5 14.9 62.7 14.9 94.9v191.1c-.1 3-1.3 5.8-3.4 7.8s-5 3.2-8 3.1h-59c-5.8-.3-10.4-5.1-10.4-10.9V159.3c0-12.7 1.1-44.6-1.7-56.7-4.4-20.4-17.6-26.1-34.7-26.1-15.7.5-29.5 10.2-35.2 24.8-6.1 15.4-5.5 40.8-5.5 58v160.5c-.1 3-1.3 5.8-3.4 7.8-2.1 2-5 3.2-7.9 3.1H494c-5.8-.3-10.3-5.1-10.4-10.9V159.3c0-33.8 5.2-83.5-36.6-83.5-41.8 0-40.7 48.4-40.7 83.5v160.5c-.1 3-1.3 5.8-3.4 7.8-2.2 2-5 3.1-8 3"/><path class="st0" d="M1052.1 278c-10.8-14.9-22.3-27-22.3-54.6v-91.9c0-39 2.8-74.7-26.1-101.6C981.1 8.2 943.6.6 915 .6c-56.1 0-118.8 20.9-132 90.3-.6 2.8.1 5.7 1.7 8.1 1.7 2.3 4.2 3.9 7.1 4.3l57.2 6.2c5.5-.9 9.8-5.3 10.4-10.9 5-23.9 24.9-35.4 47.4-35.4 12.2 0 26.1 4.5 33.1 15.4 8.3 12.1 7.2 28.7 7.2 42.8v7.5c-34.2 3.8-79 6.4-110.9 20.4-37 16-62.9 48.5-62.9 96.4 0 61.3 38.6 91.9 88.3 91.9 41.8 0 64.9-9.9 97.2-42.9 10.8 15.7 14.3 23 33.8 39.3 4.5 2.5 10 2 13.9-1.4 11.7-10.4 33.2-29.1 45.2-39.2 5.2-3.6 4.4-10 .4-15.4zm-115.9-26.5c-9.3 16.6-24.3 26.8-40.8 26.8-22.6 0-35.8-17.2-35.8-42.8 0-50.3 45.1-59.4 87.7-59.4v12.7c0 23.2.4 42.3-11.1 62.7zM1102.1 60.1V16.8c-.1-3 1-5.8 3.1-7.9s5-3.2 7.9-3H1307c2.9-.1 5.8 1 7.9 3.1 2.1 2.1 3.3 4.9 3.3 7.8v37.1c0 6.2-5.2 14.4-14.6 27.2l-100.5 143.4c37.3-.9 76.7 4.7 110.6 23.8 6.3 3.3 10.2 9.8 10.4 16.9v46.4c0 6.4-6.9 13.7-14.3 9.9-64.3-33.1-140.7-32.9-204.8.4-6.7 3.6-13.8-3.7-13.8-10v-44.1c-.6-10.4 1.9-20.7 7.2-29.7L1214.8 71h-101.5c-3 .1-5.8-1-8-3.1S1102 63 1102 60M1485.5 62.2c-43.5 0-46.3 59.2-46.3 96.2s-.5 115.9 45.7 115.9 47.9-63.7 47.9-102.6c0-25.5-1.1-56.1-8.8-80.3-6.6-20.7-19.8-29.2-38.5-29.2zM1485 .4c87.6 0 134.9 75.2 134.9 170.8 0 92.4-52.2 165.6-134.9 165.6-85.9 0-132.7-75.2-132.7-168.8S1399.6.4 1485 .4zM1734 330h-58.8c-5.8-.3-10.4-5.1-10.4-10.9V16.3c.6-5.8 5.5-10.1 11.3-9.9h54.7c5 .2 9.3 3.6 10.4 8.5v46.3h1.1c16.5-41.4 39.6-61.1 80.4-61.1 26.4 0 52.2 9.6 68.9 35.7 15.4 24.2 15.4 65 15.4 94.3v190.5c-.9 5.6-5.7 9.6-11.3 9.5h-59.3c-5.3-.2-9.7-4.2-10.4-9.5V156.1c0-33.1 3.9-81.6-36.9-81.6-15.1.7-28.5 10.2-34.2 24.2-8.3 18.5-9.3 37-9.3 57.4v163c-.2 6.2-5.4 11-11.6 10.9M2214 52.4c-30 .2-59.1 10.2-82.9 28.5v172.3c26.4 19.8 53.6 29.7 81.6 29.7 56.9 0 85.3-38.3 85.3-114.9s-27.9-115.2-84-115.6zm-87.2-8.1c14.8-13.1 31.8-23.5 50.1-30.9 17.3-6.9 35.8-10.4 54.4-10.4 18.5-.3 36.9 3.4 53.8 10.9 16 7.3 29.9 18.3 40.8 32.2 11.8 15.3 20.5 32.8 25.7 51.4 6.3 22.1 9.3 44.9 9 67.9.3 23.4-3 46.8-9.6 69.2-5.6 19.1-14.7 36.9-26.9 52.6-11.3 14.3-25.7 25.8-42.1 33.7-17.2 8-36 11.9-55 11.5-35.5.6-69.8-12.5-95.8-36.6v145c.5 3.4-.6 6.9-3.1 9.3-2.4 2.4-5.9 3.6-9.3 3.1h-36.6c-3.4.5-6.9-.6-9.3-3.1-2.4-2.4-3.6-5.9-3.1-9.3V24.5c-.5-3.4.7-6.8 3.1-9.3 2.4-2.4 5.9-3.6 9.3-3.1h27.2c3.6-.3 7.1.8 9.8 3.1 2.7 2.3 4.3 5.7 4.5 9.2l3.1 19.9zM2514.8 287.6c14.6-.2 29-2.9 42.7-8 15.3-5.6 29.7-13.6 42.7-23.5V193c-10.7-2.5-21.6-4.5-32.5-5.8-11-1.4-22-2.2-33.1-2.2-46.6 0-70 17.9-69.9 53.8 0 15.7 4.3 27.7 13 36.2 8.7 8.4 21.1 12.6 37.1 12.6zm-72.3-221.5-4.6 1.6c-1.7.6-3.4.9-5.2.9-5.2 0-8-3.7-8-11.2V40.8c-.4-4.2.5-8.4 2.5-12.1 2.7-3 6.1-5.2 9.9-6.5 15.7-6.4 32.1-11 48.8-13.6 19.2-3.5 38.6-5.2 58.1-5.2 39.2 0 68 8 86.6 24.1 18.6 16 27.8 41 27.9 74.8v211.3c.5 3.4-.7 6.8-3.1 9.3-2.4 2.4-5.9 3.6-9.3 3.1h-26.6c-3.4.3-6.7-.7-9.3-3-2.6-2.2-4.1-5.4-4.3-8.8l-3.1-20.4c-14.6 12.6-31.2 22.7-49.1 29.7-17 6.8-35.2 10.4-53.5 10.4-29.7 0-53.2-8.4-70.5-25.1-17.3-16.7-26-39.1-26.1-67.1 0-30.1 10.7-54.1 32.2-72.1 21.4-18 50.3-26.9 86.6-26.9 26.3.4 52.4 3.9 77.9 10.4v-40.6c0-22.3-4.9-37.9-14.8-47S2558 52 2533.2 52c-30.7.2-61.3 5-90.7 14.1zM2859.6 380.7c-11.2 28.4-24.1 48.9-38.7 61.3-14.6 12.4-33.8 18.6-57.4 18.5-11.9.2-23.7-1.3-35.2-4.3-3.9-.8-7.4-2.9-9.9-5.9-2.3-3.8-3.4-8.2-3.1-12.6v-16.1c0-7.8 3.1-11.7 9.3-11.7 3.1.1 6.2.5 9.3 1.2 5.5 1 11.1 1.4 16.7 1.3 13.1.8 26.1-3.1 36.6-11.1 8.7-7.4 16.5-21 23.5-40.8l11.7-31.3-119.3-294.8c-2.2-4.7-3.7-9.7-4.3-14.9 0-4.9 2.9-7.4 8.6-7.4h37.1c4.8-.5 9.5.6 13.6 3.1 3.5 3.9 6 8.6 7.4 13.6l86.6 239.9 83.5-239.9c1.3-5.1 3.9-9.7 7.4-13.6 4.1-2.5 8.9-3.5 13.6-3.1h34.6c5.8 0 8.7 2.5 8.7 7.4-.6 5.2-2.1 10.2-4.3 14.9l-136 346.3"/><path d="M1182 449.4c-110.8 81.7-271.5 125.3-409.6 125.3-184.7.9-363.1-67.1-500.2-190.9-10.4-9.3-1.1-22.1 11.3-14.9C426 451.8 602.1 501.8 784.1 501.8c131.2-.7 261-27.3 381.9-78.3 18.7-7.9 34.4 12.3 16.1 26.1m46-52.6c14.2 18.1-15.7 92.9-29.1 126.3-4.1 10.1 4.6 14.2 13.8 6.5 59.4-49.7 74.7-153.8 62.7-168.9-12.1-15-115.9-27.8-179.3 16.8-9.8 6.8-8.1 16.3 2.8 15 35.7-4.3 115.1-13.8 129.3 4.3" style="fill-rule:evenodd;clip-rule:evenodd;fill:#f90"/></g></g></svg>