<svg width="16" height="22" viewBox="0 0 16 16" fill="none" xmlns="http://www.w3.org/2000/svg">
    <circle cx="7.69048" cy="10.3095" r="7.69048" fill="#F51D1D"/>
    <path d="M8.85067 4.432V9.008C8.85067 9.49333 8.82667 9.97067 8.77867 10.44C8.73067 10.904 8.66934 11.3973 8.59467 11.92H7.25067C7.17601 11.3973 7.11467 10.904 7.06667 10.44C7.01867 9.97067 6.99467 9.49333 6.99467 9.008V4.432H8.85067ZM6.68267 14.912C6.68267 14.7467 6.71201 14.5893 6.77067 14.44C6.83467 14.2907 6.92001 14.1627 7.02667 14.056C7.13867 13.9493 7.26934 13.864 7.41867 13.8C7.56801 13.736 7.72801 13.704 7.89867 13.704C8.06401 13.704 8.22134 13.736 8.37067 13.8C8.52001 13.864 8.64801 13.9493 8.75467 14.056C8.86667 14.1627 8.95467 14.2907 9.01867 14.44C9.08267 14.5893 9.11467 14.7467 9.11467 14.912C9.11467 15.0827 9.08267 15.2427 9.01867 15.392C8.95467 15.536 8.86667 15.6613 8.75467 15.768C8.64801 15.8747 8.52001 15.9573 8.37067 16.016C8.22134 16.08 8.06401 16.112 7.89867 16.112C7.72801 16.112 7.56801 16.08 7.41867 16.016C7.26934 15.9573 7.13867 15.8747 7.02667 15.768C6.92001 15.6613 6.83467 15.536 6.77067 15.392C6.71201 15.2427 6.68267 15.0827 6.68267 14.912Z" fill="white"/>
</svg>