<svg xmlns="http://www.w3.org/2000/svg" width="26" height="26" viewBox="0 0 26 26">
  <g fill-rule="evenodd">
    <path fill-rule="nonzero" d="M22.9531,2.03125 L21.7344,2.03125 L21.7344,0 L19.7031,0 L19.7031,2.03125 L6.29688,2.03125 L6.29688,0 L4.26562,0 L4.26562,2.03125 L3.04688,2.03125 C1.36683,2.03125 0,3.39808 0,5.07812 L0,22.9531 C0,24.6332 1.36683,26 3.04688,26 L22.9531,26 C24.6332,26 26,24.6332 26,22.9531 L26,5.07812 C26,3.39808 24.6332,2.03125 22.9531,2.03125 Z M23.9688,22.9531 C23.9688,23.5131 23.5131,23.9688 22.9531,23.9688 L3.04688,23.9688 C2.48686,23.9688 2.03125,23.5131 2.03125,22.9531 L2.03125,9.54688 L23.9688,9.54688 L23.9688,22.9531 Z M23.9688,7.51562 L2.03125,7.51562 L2.03125,5.07812 C2.03125,4.51811 2.48686,4.0625 3.04688,4.0625 L4.26562,4.0625 L4.26562,6.09375 L6.29688,6.09375 L6.29688,4.0625 L19.7031,4.0625 L19.7031,6.09375 L21.7344,6.09375 L21.7344,4.0625 L22.9531,4.0625 C23.5131,4.0625 23.9688,4.51811 23.9688,5.07812 L23.9688,7.51562 Z"/>
    <polygon points="5.891 11.68 3.859 11.68 3.859 13.711 5.891 13.711"/>
    <polygon points="9.953 11.68 7.922 11.68 7.922 13.711 9.953 13.711"/>
    <polygon points="14.016 11.68 11.984 11.68 11.984 13.711 14.016 13.711"/>
    <polygon points="18.078 11.68 16.047 11.68 16.047 13.711 18.078 13.711"/>
    <polygon points="22.141 11.68 20.109 11.68 20.109 13.711 22.141 13.711"/>
    <polygon points="5.891 15.742 3.859 15.742 3.859 17.773 5.891 17.773"/>
    <polygon points="9.953 15.742 7.922 15.742 7.922 17.773 9.953 17.773"/>
    <polygon points="14.016 15.742 11.984 15.742 11.984 17.773 14.016 17.773"/>
    <polygon points="18.078 15.742 16.047 15.742 16.047 17.773 18.078 17.773"/>
    <polygon points="5.891 19.805 3.859 19.805 3.859 21.836 5.891 21.836"/>
    <polygon points="9.953 19.805 7.922 19.805 7.922 21.836 9.953 21.836"/>
    <polygon points="14.016 19.805 11.984 19.805 11.984 21.836 14.016 21.836"/>
    <polygon points="18.078 19.805 16.047 19.805 16.047 21.836 18.078 21.836"/>
    <polygon points="22.141 15.742 20.109 15.742 20.109 17.773 22.141 17.773"/>
  </g>
</svg>
