<svg xmlns="http://www.w3.org/2000/svg" width="26" height="26" viewBox="0 0 26 26">
  <g fill-rule="evenodd">
    <path fill-rule="nonzero" d="M22.1924,3.80763 C19.737,1.35225 16.4724,0 13,0 C9.52758,0 6.263,1.3523 3.80763,3.80763 C1.35225,6.26295 0,9.52758 0,13 C0,16.4724 1.35225,19.737 3.80763,22.1924 C6.26295,24.6477 9.52758,26 13,26 C16.4724,26 19.737,24.6477 22.1924,22.1924 C24.6477,19.737 26,16.4724 26,13 C26,9.52758 24.6477,6.26295 22.1924,3.80763 Z M13,23.8995 C6.99004,23.8995 2.10052,19.01 2.10052,13 C2.10052,6.99004 6.99004,2.10052 13,2.10052 C19.01,2.10052 23.8995,6.99004 23.8995,13 C23.8995,19.01 19.01,23.8995 13,23.8995 Z"/>
    <path d="M17.3277,15.8422 L14.0503,12.565 L14.0503,5.83017 C14.0503,5.25014 13.5802,4.77991 13.0001,4.77991 C12.4201,4.77991 11.9498,5.25014 11.9498,5.83017 L11.9498,13 C11.9498,13.2786 12.0605,13.5457 12.2575,13.7427 L15.8423,17.3276 C16.0474,17.5327 16.3162,17.6352 16.585,17.6352 C16.8538,17.6352 17.1226,17.5327 17.3277,17.3276 C17.7378,16.9174 17.7378,16.2524 17.3277,15.8422 Z"/>
  </g>
</svg>
