<svg xmlns="http://www.w3.org/2000/svg" width="26" height="24" viewBox="0 0 26 24">
  <g fill-rule="evenodd" stroke="#000" stroke-width=".2">
    <path fill-rule="nonzero" d="M4.03902,23.1777 L4.03902,23.3691 L4.19614,23.2598 L11.2236,18.3698 L21.8237,18.3698 C23.7267,18.3698 25.2748,16.8217 25.2748,14.9187 L25.2748,4.10331 C25.2748,2.20002 23.7267,0.6522 21.8237,0.6522 L4.15092,0.6522 C2.24793,0.6522 0.699805,2.20002 0.699805,4.10331 L0.699805,14.9187 C0.699805,16.7843 2.18752,18.3087 4.03902,18.368 L4.03902,23.1777 Z M10.7441,16.7416 L10.7127,16.7416 L10.687,16.7595 L5.66724,20.2526 L5.66724,16.8416 L5.66724,16.7416 L5.56724,16.7416 L4.15092,16.7416 C3.14585,16.7416 2.32803,15.9236 2.32803,14.9187 L2.32803,4.10331 C2.32803,3.09809 3.14584,2.28042 4.15092,2.28042 L21.8237,2.28042 C22.8288,2.28042 23.6466,3.09809 23.6466,4.10331 L23.6466,14.9187 C23.6466,15.9236 22.8288,16.7416 21.8237,16.7416 L10.7441,16.7416 Z"/>
    <polygon points="7.324 5.699 7.224 5.699 7.224 5.799 7.224 7.227 7.224 7.327 7.324 7.327 18.651 7.327 18.751 7.327 18.751 7.227 18.751 5.799 18.751 5.699 18.651 5.699"/>
    <polygon points="7.324 8.745 7.224 8.745 7.224 8.845 7.224 10.274 7.224 10.374 7.324 10.374 18.651 10.374 18.751 10.374 18.751 10.274 18.751 8.845 18.751 8.745 18.651 8.745"/>
    <polygon points="7.324 11.792 7.224 11.792 7.224 11.892 7.224 13.321 7.224 13.421 7.324 13.421 18.651 13.421 18.751 13.421 18.751 13.321 18.751 11.892 18.751 11.792 18.651 11.792"/>
  </g>
</svg>
