<svg width="14" height="9" viewBox="0 0 14 9" fill="#ff5501" xmlns="http://www.w3.org/2000/svg">
<path d="M6.99704 5.63585L12.2346 0.398484C12.3785 0.254273 12.5709 0.17494 12.776 0.17494C12.9812 0.17494 13.1734 0.254273 13.3175 0.398484L13.7762 0.857411C13.9206 1.00139 14 1.19387 14 1.39897C14 1.60408 13.9206 1.79632 13.7762 1.94042L7.54042 8.17634C7.39587 8.321 7.20272 8.40022 6.99738 8.39966C6.79114 8.40022 6.59821 8.32112 6.45354 8.17634L0.223772 1.94622C0.0794468 1.80213 0 1.60988 0 1.40466C0 1.19956 0.0794468 1.00731 0.223772 0.863102L0.682471 0.40429C0.981024 0.105737 1.46704 0.105737 1.76548 0.40429L6.99704 5.63585Z" fill="#ff5501"/>
</svg>
