<?xml version="1.0" encoding="UTF-8"?>
<svg xmlns="http://www.w3.org/2000/svg" xmlns:xlink="http://www.w3.org/1999/xlink" width="26px" height="26px" viewBox="0 0 26 25" version="1.1">
<g id="surface1">
<path style=" stroke:none;fill-rule:nonzero;fill:rgb(100%,0%,0%);fill-opacity:1;" d="M 2.28125 0.0976562 C 1.332031 0.289062 0.386719 1.210938 0.136719 2.152344 C -0.238281 3.605469 0.136719 4.164062 4.398438 8.300781 C 6.667969 10.503906 8.511719 12.390625 8.511719 12.535156 C 8.511719 12.679688 6.667969 14.570312 4.398438 16.773438 C 0.109375 20.933594 -0.238281 21.441406 0.136719 22.96875 C 0.234375 23.332031 0.660156 23.933594 1.082031 24.324219 C 1.707031 24.878906 2.054688 25 3.101562 25 L 4.375 25 L 8.6875 20.835938 L 13 16.675781 L 17.3125 20.835938 L 21.625 25 L 22.894531 25 C 23.941406 25 24.289062 24.878906 24.914062 24.324219 C 25.335938 23.933594 25.761719 23.332031 25.859375 22.96875 C 26.234375 21.441406 25.886719 20.933594 21.597656 16.773438 C 19.332031 14.570312 17.484375 12.679688 17.484375 12.535156 C 17.484375 12.390625 19.332031 10.503906 21.597656 8.300781 C 25.886719 4.136719 26.234375 3.628906 25.859375 2.105469 C 25.761719 1.742188 25.335938 1.136719 24.914062 0.75 C 24.289062 0.195312 23.941406 0.0742188 22.894531 0.0742188 L 21.625 0.0742188 L 17.3125 4.234375 L 13 8.421875 L 8.8125 4.355469 C 4.449219 0.121094 3.898438 -0.242188 2.28125 0.0976562 Z M 2.28125 0.0976562 "/>
</g>
</svg>
