<svg width="41" height="26" viewBox="0 0 41 26" fill="none" xmlns="http://www.w3.org/2000/svg">
<g id="Mastercard">
<path id="Left" fill-rule="evenodd" clip-rule="evenodd" d="M28.2836 25.0469C34.9595 25.0469 40.3714 19.6384 40.3714 12.9667C40.3714 6.29498 34.9595 0.886475 28.2836 0.886475C25.2917 0.886475 22.5536 1.97279 20.4429 3.77229C18.3321 1.9728 15.594 0.886485 12.6021 0.886485C5.92618 0.886485 0.514282 6.29499 0.514282 12.9667C0.514282 19.6384 5.92618 25.0469 12.6021 25.0469C15.594 25.0469 18.3321 23.9606 20.4429 22.1611C22.5536 23.9606 25.2917 25.0469 28.2836 25.0469Z" fill="#ED0006"/>
<path id="Right" fill-rule="evenodd" clip-rule="evenodd" d="M20.4427 22.1612C23.0418 19.9454 24.6899 16.6484 24.6899 12.9667C24.6899 9.28499 23.0418 5.98796 20.4427 3.77223C22.5535 1.97277 25.2915 0.886475 28.2834 0.886475C34.9594 0.886475 40.3713 6.29498 40.3713 12.9667C40.3713 19.6384 34.9594 25.0469 28.2834 25.0469C25.2915 25.0469 22.5535 23.9606 20.4427 22.1612Z" fill="#F9A000"/>
<path id="Middle" fill-rule="evenodd" clip-rule="evenodd" d="M20.4429 22.161C23.0419 19.9453 24.6899 16.6483 24.6899 12.9666C24.6899 9.28495 23.0419 5.98795 20.4429 3.77222C17.8438 5.98795 16.1958 9.28495 16.1958 12.9666C16.1958 16.6483 17.8438 19.9453 20.4429 22.161Z" fill="#FF5E00"/>
</g>
</svg>
