<svg width="39" height="31" viewBox="0 0 39 31" fill="none" xmlns="http://www.w3.org/2000/svg">
<g id="PayPal">
<path id="Vector" fill-rule="evenodd" clip-rule="evenodd" d="M5.38562 21.1729H2.49662C2.29892 21.1729 2.13079 21.305 2.09996 21.4845L0.931497 28.2991C0.908273 28.4336 1.02148 28.5548 1.16976 28.5548H2.549C2.74669 28.5548 2.91483 28.4227 2.94566 28.2429L3.26081 26.4049C3.29121 26.2249 3.45976 26.0929 3.65705 26.0929H4.5716C6.47469 26.0929 7.57295 25.2457 7.85993 23.567C7.98915 22.8326 7.8654 22.2556 7.49143 21.8513C7.0809 21.4077 6.35251 21.1729 5.38562 21.1729ZM5.71893 23.6618C5.56097 24.6154 4.76889 24.6154 4.00302 24.6154H3.56706L3.87291 22.8344C3.89107 22.7269 3.99245 22.6476 4.11074 22.6476H4.31055C4.83225 22.6476 5.32443 22.6476 5.57877 22.9211C5.73027 23.0844 5.77679 23.3268 5.71893 23.6618ZM14.0216 23.6312H12.6381C12.5202 23.6312 12.4183 23.7105 12.4002 23.8183L12.339 24.1741L12.2422 24.0452C11.9427 23.6453 11.2749 23.5117 10.6083 23.5117C9.07939 23.5117 7.77372 24.5768 7.51939 26.0709C7.38724 26.8161 7.5751 27.5288 8.0347 28.0258C8.45637 28.4827 9.05965 28.6732 9.77729 28.6732C11.0091 28.6732 11.6923 27.9445 11.6923 27.9445L11.6305 28.2982C11.6073 28.4335 11.7204 28.5547 11.8678 28.5547H13.1141C13.3123 28.5547 13.4795 28.4225 13.5107 28.2427L14.2585 23.887C14.2821 23.753 14.1693 23.6312 14.0216 23.6312ZM12.0931 26.1081C11.9595 26.8352 11.3322 27.3232 10.5323 27.3232C10.1305 27.3232 9.80935 27.2047 9.6033 26.9801C9.39882 26.7571 9.32101 26.4396 9.38611 26.086C9.51083 25.3651 10.1487 24.8612 10.9365 24.8612C11.3293 24.8612 11.6487 24.9812 11.8591 25.2078C12.0698 25.4367 12.1535 25.756 12.0931 26.1081ZM19.9994 23.6311H21.3897C21.5844 23.6311 21.698 23.8319 21.5874 23.9788L16.9635 30.1184C16.8886 30.2179 16.7652 30.277 16.6335 30.277H15.2449C15.0494 30.277 14.9353 30.0745 15.0485 29.9273L16.4882 28.0578L14.957 23.924C14.904 23.7803 15.0193 23.6311 15.1855 23.6311H16.5516C16.7291 23.6311 16.8857 23.7382 16.9369 23.8945L17.7495 26.3912L19.6671 23.7931C19.7422 23.6917 19.8669 23.6311 19.9994 23.6311Z" fill="#253B80"/>
<path id="Vector_2" fill-rule="evenodd" clip-rule="evenodd" d="M35.0729 28.2993L36.2586 21.36C36.2768 21.2523 36.3782 21.173 36.4961 21.1726H37.8309C37.9783 21.1726 38.0915 21.2942 38.0682 21.4287L36.899 28.243C36.8685 28.4228 36.7004 28.555 36.5024 28.555H35.3103C35.1629 28.555 35.0497 28.4338 35.0729 28.2993ZM25.9927 21.173H23.1031C22.9059 21.173 22.7378 21.3051 22.7069 21.4846L21.5384 28.2993C21.5152 28.4338 21.6284 28.555 21.776 28.555H23.2586C23.3964 28.555 23.5143 28.4625 23.5358 28.3367L23.8673 26.405C23.8978 26.225 24.0663 26.093 24.2636 26.093H25.1777C27.0811 26.093 28.1792 25.2458 28.4664 23.5672C28.596 22.8328 28.4715 22.2557 28.0977 21.8514C27.6874 21.4078 26.9596 21.173 25.9927 21.173ZM26.326 23.6619C26.1684 24.6155 25.3763 24.6155 24.61 24.6155H24.1744L24.4807 22.8345C24.4989 22.727 24.5994 22.6477 24.7181 22.6477H24.9179C25.4392 22.6477 25.9319 22.6477 26.186 22.9212C26.3377 23.0845 26.3838 23.3269 26.326 23.6619ZM34.6278 23.6314H33.2453C33.1265 23.6314 33.0256 23.7107 33.0078 23.8184L32.9466 24.1742L32.8494 24.0453C32.55 23.6454 31.8826 23.5118 31.2159 23.5118C29.687 23.5118 28.3817 24.5769 28.1274 26.071C27.9956 26.8162 28.1827 27.5289 28.6423 28.0259C29.0648 28.4829 29.6673 28.6733 30.3849 28.6733C31.6167 28.6733 32.2997 27.9446 32.2997 27.9446L32.2382 28.2984C32.2149 28.4336 32.3281 28.5548 32.4765 28.5548H33.7221C33.9194 28.5548 34.0875 28.4226 34.1184 28.2428L34.8665 23.8871C34.8894 23.7531 34.7762 23.6314 34.6278 23.6314ZM32.6995 26.1083C32.5668 26.8353 31.9387 27.3233 31.1385 27.3233C30.7376 27.3233 30.4158 27.2048 30.2096 26.9802C30.0051 26.7573 29.9282 26.4397 29.9926 26.0861C30.1179 25.3652 30.755 24.8614 31.5428 24.8614C31.9357 24.8614 32.255 24.9813 32.4655 25.2079C32.677 25.4368 32.7607 25.7562 32.6995 26.1083Z" fill="#179BD7"/>
<path id="Vector_3" d="M16.0773 18.7352L16.4325 16.66L15.6414 16.6431H11.8635L14.4889 1.32989C14.497 1.28366 14.5235 1.24056 14.5623 1.20995C14.601 1.17934 14.6506 1.16248 14.7022 1.16248H21.0722C23.187 1.16248 24.6464 1.56728 25.4084 2.36626C25.7655 2.74109 25.9931 3.13276 26.1032 3.5638C26.2185 4.0161 26.2206 4.55646 26.1078 5.21551L26.0996 5.26362V5.6859L26.457 5.87207C26.7578 6.01887 26.9967 6.18691 27.1801 6.37932C27.4858 6.69979 27.6835 7.10709 27.767 7.58998C27.8532 8.08662 27.8246 8.67758 27.6835 9.34663C27.5205 10.1163 27.2569 10.7866 26.9011 11.335C26.5737 11.8404 26.1567 12.2595 25.6617 12.5845C25.189 12.893 24.6274 13.1273 23.9925 13.2773C23.3771 13.4246 22.6756 13.499 21.9062 13.499H21.4104C21.056 13.499 20.7116 13.6165 20.4414 13.827C20.1704 14.0419 19.991 14.3354 19.9361 14.6566L19.8987 14.8434L19.2712 18.5009L19.2427 18.6352C19.2352 18.6778 19.2223 18.699 19.2034 18.7134C19.1864 18.7264 19.1619 18.7352 19.1381 18.7352H16.0773Z" fill="#253B80"/>
<path id="Vector_4" d="M26.7951 5.31238C26.7761 5.42419 26.7544 5.53851 26.73 5.65595C25.8898 9.62341 23.0159 10.994 19.3452 10.994H17.4763C17.0275 10.994 16.6492 11.2938 16.5792 11.7011L15.6223 17.2835L15.3514 18.8658C15.3058 19.1332 15.53 19.3743 15.8233 19.3743H19.1382C19.5307 19.3743 19.864 19.112 19.9258 18.7559L19.9584 18.6009L20.5826 14.9576L20.6227 14.7579C20.6837 14.4006 21.0178 14.1382 21.4103 14.1382H21.9061C25.1176 14.1382 27.6318 12.9388 28.3666 9.46786C28.6736 8.01793 28.5146 6.80728 27.7024 5.95581C27.4566 5.69906 27.1517 5.48603 26.7951 5.31238Z" fill="#179BD7"/>
<path id="Vector_5" d="M25.9161 4.99037C25.7879 4.95601 25.6553 4.92477 25.5195 4.89667C25.383 4.86919 25.2431 4.84482 25.0992 4.82359C24.5952 4.74862 24.0431 4.71301 23.4516 4.71301H18.4588C18.3358 4.71301 18.2191 4.73862 18.1145 4.78485C17.8843 4.88667 17.7132 5.08721 17.6718 5.33271L16.6095 11.521L16.579 11.7015C16.649 11.2942 17.0272 10.9943 17.4761 10.9943H19.345C23.0157 10.9943 25.8897 9.62313 26.7298 5.6563C26.7548 5.53886 26.7759 5.42454 26.7949 5.31273C26.5824 5.20902 26.3521 5.12032 26.1042 5.04472C26.0432 5.02598 25.9801 5.00787 25.9161 4.99037Z" fill="#222D65"/>
<path id="Vector_6" d="M17.6715 5.33249C17.7129 5.08698 17.8842 4.88646 18.1143 4.78525C18.2196 4.73902 18.3358 4.71341 18.4585 4.71341H23.4515C24.0431 4.71341 24.5951 4.74902 25.0989 4.82399C25.243 4.84522 25.383 4.86959 25.5194 4.89707C25.6553 4.92519 25.7876 4.95643 25.916 4.99077C25.9798 5.00827 26.0429 5.02638 26.1047 5.0445C26.3526 5.12009 26.5829 5.20942 26.7954 5.3125C27.0454 3.84633 26.7934 2.84807 25.9317 1.94412C24.9816 0.94899 23.2668 0.522949 21.0726 0.522949H14.7024C14.2541 0.522949 13.872 0.822789 13.8026 1.23072L11.1494 16.7014C11.097 17.0074 11.3537 17.2836 11.6891 17.2836H15.622L16.6094 11.5207L17.6715 5.33249Z" fill="#253B80"/>
</g>
</svg>
