<svg width="31" height="24" viewBox="0 0 31 24" fill="none" xmlns="http://www.w3.org/2000/svg">
<g clip-path="url(#clip0_1575_1318)">
<path d="M30.6335 5.77284L20.2559 0.0742119C20.0749 -0.0247373 19.8558 -0.0247373 19.6754 0.0742119L15.773 2.21731C15.6849 2.24204 15.6028 2.28669 15.5328 2.34884L9.29784 5.77284C9.10477 5.87903 8.98471 6.08175 8.98471 6.30198V7.53582H2.02327C1.69022 7.53582 1.41992 7.80612 1.41992 8.13917C1.41992 8.47222 1.69022 8.74252 2.02327 8.74252H8.98471V10.9146H5.52571C5.19266 10.9146 4.92236 11.1849 4.92236 11.5179C4.92236 11.851 5.19266 12.1213 5.52571 12.1213H8.98471V15.2587H3.91658C3.58353 15.2587 3.31323 15.529 3.31323 15.862C3.31323 16.1951 3.58353 16.4654 3.91658 16.4654H8.98471V17.6992C8.98471 17.9195 9.10477 18.1222 9.29784 18.2284L19.6754 23.927C19.7659 23.9765 19.8661 24.0012 19.9657 24.0012C20.0652 24.0012 20.1654 23.9765 20.2559 23.927L30.6335 18.2284C30.8265 18.1222 30.9466 17.9195 30.9466 17.6992V14.9974C30.9466 14.9908 30.946 14.9842 30.9454 14.9775C30.9454 14.9709 30.9466 14.9643 30.9466 14.9576V6.30137C30.9466 6.08115 30.8265 5.87843 30.6335 5.77224V5.77284ZM19.9657 1.29177L29.0895 6.30198L26.3292 7.81759L17.2053 2.80738L19.9657 1.29177ZM15.9522 3.4958L25.076 8.50601L24.0871 9.04902L14.9627 4.03882L15.9516 3.4958H15.9522ZM25.7095 9.53472V11.717L24.6923 12.2769V10.0934L25.7095 9.53472ZM19.3623 22.3776L10.1914 17.342V7.32163L19.3623 12.3572V22.3776ZM19.9657 11.3122L10.8418 6.30137L13.7095 4.72663L22.834 9.73684L19.9663 11.3116L19.9657 11.3122ZM29.7399 14.9968V17.3414L20.569 22.377V12.3572L23.4856 10.7559V13.2972C23.4856 13.5108 23.5984 13.7081 23.7818 13.8167C23.8766 13.8728 23.9827 13.9005 24.0889 13.9005C24.1891 13.9005 24.2892 13.8758 24.3797 13.8257L26.6037 12.6015C26.7962 12.4953 26.9162 12.2932 26.9162 12.073V8.87164L29.7399 7.32103V14.9558C29.7399 14.9624 29.7405 14.9691 29.7411 14.9757C29.7411 14.9824 29.7399 14.989 29.7399 14.9956V14.9968Z" fill="#E8983F"/>
<path d="M1.52263 15.2581H0.658036C0.324988 15.2581 0.0546875 15.5284 0.0546875 15.8614C0.0546875 16.1945 0.324988 16.4648 0.658036 16.4648H1.52263C1.85568 16.4648 2.12598 16.1945 2.12598 15.8614C2.12598 15.5284 1.85568 15.2581 1.52263 15.2581Z" fill="#E8983F"/>
<path d="M3.71549 11.5173C3.71549 11.3586 3.65093 11.203 3.53871 11.0908C3.42648 10.9785 3.27082 10.914 3.11214 10.914C2.95346 10.914 2.79779 10.9785 2.68557 11.0908C2.57274 11.203 2.50879 11.3586 2.50879 11.5173C2.50879 11.676 2.57274 11.8317 2.68557 11.9439C2.79779 12.0561 2.95346 12.1207 3.11214 12.1207C3.27082 12.1207 3.42648 12.0561 3.53871 11.9439C3.65093 11.8317 3.71549 11.676 3.71549 11.5173Z" fill="#E8983F"/>
</g>
<defs>
<clipPath id="clip0_1575_1318">
<rect width="30.8914" height="24" fill="white" transform="translate(0.0546875)"/>
</clipPath>
</defs>
</svg>
