<svg width="24" height="20" viewBox="0 0 24 20" fill="none" xmlns="http://www.w3.org/2000/svg">
<g clip-path="url(#clip0_1655_815)">
<path d="M19.5696 17.0306C19.3436 17.0306 19.1602 17.2141 19.1602 17.4401C19.1602 17.6661 19.3436 17.8496 19.5696 17.8496H19.574C19.8 17.8496 19.9813 17.6661 19.9813 17.4401C19.9813 17.2141 19.7957 17.0306 19.5696 17.0306Z" fill="#126366"/>
<path d="M6.00225 17.0306C5.77622 17.0306 5.59277 17.2141 5.59277 17.4401C5.59277 17.6661 5.77622 17.8496 6.00225 17.8496H6.00662C6.23265 17.8496 6.41391 17.6661 6.41391 17.4401C6.41391 17.2141 6.22828 17.0306 6.00225 17.0306Z" fill="#126366"/>
<path d="M23.6871 12.4757L22.3779 11.5394L22.3588 7.57948C22.356 6.96964 21.9013 6.52686 21.2778 6.52686H18.0991C18.1363 6.3112 18.0888 6.09882 17.9627 5.93449C17.8245 5.75486 17.6072 5.65168 17.3665 5.65168H13.0446C12.4462 2.66087 9.79991 0.400024 6.63549 0.400024C3.03102 0.400024 0.0986328 3.33241 0.0986328 6.93633C0.0986328 8.96842 1.03114 10.787 2.48997 11.9865C2.48505 11.9991 2.48068 12.0122 2.47741 12.0258L1.34726 16.8964C1.28229 17.1383 1.32597 17.3829 1.46737 17.5663C1.6055 17.7459 1.82279 17.8491 2.06357 17.8491H3.78227C3.77408 18.2591 3.89037 18.6435 4.12404 18.9481C4.44616 19.3685 4.94681 19.5995 5.53318 19.5995C6.5869 19.5995 7.63351 18.8521 8.04517 17.8491H17.349C17.3408 18.2591 17.4571 18.6435 17.6908 18.9481C18.0129 19.3685 18.5135 19.5995 19.0999 19.5995C20.1536 19.5995 21.2002 18.8521 21.6119 17.8491H21.7571C22.4243 17.8491 23.0855 17.3315 23.2623 16.6704L24.0676 13.6648C24.1949 13.1898 24.0485 12.7345 23.6866 12.4752L23.6871 12.4757ZM21.5578 11.3412H18.9055C18.8362 11.3412 18.7423 11.3264 18.6882 11.256C18.6402 11.1938 18.6304 11.0939 18.6604 10.9814L19.012 9.66835C19.0933 9.3637 19.4275 9.09672 19.7261 9.09672H21.5464L21.5573 11.3412H21.5578ZM0.917582 6.93633C0.917582 3.78338 3.48253 1.21897 6.63494 1.21897C9.78735 1.21897 12.3523 3.78392 12.3523 6.93633C12.3523 10.0887 9.78735 12.6537 6.63494 12.6537C3.48253 12.6537 0.917582 10.0887 0.917582 6.93633ZM7.35726 17.3337C7.14706 18.1183 6.31173 18.7805 5.53318 18.7805C5.20724 18.7805 4.93753 18.6631 4.77374 18.4497C4.5974 18.2198 4.55263 17.8988 4.64708 17.5456C4.85728 16.761 5.6926 16.0982 6.47115 16.0982C6.79709 16.0982 7.0668 16.2156 7.23059 16.4291C7.40694 16.6589 7.45171 16.9799 7.35671 17.3332L7.35726 17.3337ZM8.22261 17.0302C8.2308 16.6201 8.11451 16.2358 7.88084 15.9311C7.55872 15.5113 7.05807 15.2798 6.4717 15.2798C5.41798 15.2798 4.37137 16.0272 3.95971 17.0302H2.1602L3.209 12.4997C4.20594 13.1161 5.38031 13.4726 6.63603 13.4726C10.2405 13.4726 13.1723 10.5403 13.1723 6.93633C13.1723 6.77964 13.1663 6.62459 13.1554 6.47062H17.2709L14.4412 17.0307H8.22261V17.0302ZM20.9245 17.3337C20.7143 18.1183 19.879 18.7805 19.1004 18.7805C18.7745 18.7805 18.5048 18.6631 18.341 18.4497C18.1647 18.2198 18.1199 17.8988 18.2149 17.5456C18.4251 16.761 19.2604 16.0982 20.039 16.0982C20.3649 16.0982 20.6346 16.2156 20.7984 16.4291C20.9747 16.6589 21.0195 16.9799 20.9251 17.3332L20.9245 17.3337ZM23.2771 13.453L23.2569 13.5294H22.6956C22.4696 13.5294 22.2862 13.7129 22.2862 13.9389C22.2862 14.1649 22.4696 14.3484 22.6956 14.3484H23.0374L22.4718 16.4585C22.3932 16.7523 22.0798 17.0105 21.7893 17.0285C21.7975 16.619 21.6807 16.2352 21.4476 15.9311C21.1254 15.5113 20.6248 15.2798 20.0384 15.2798C18.9847 15.2798 17.9381 16.0272 17.5264 17.0302H15.2891L16.0075 14.3478H20.9453C21.1713 14.3478 21.3547 14.1644 21.3547 13.9384C21.3547 13.7123 21.1713 13.5289 20.9453 13.5289H16.227L17.884 7.34526H21.2778C21.3968 7.34526 21.5387 7.38676 21.5398 7.58276L21.5431 8.27668H19.7267C19.0595 8.27668 18.3983 8.79426 18.2214 9.45542L17.8698 10.7685C17.7732 11.1283 17.8349 11.4875 18.0391 11.7534C18.2367 12.0111 18.5528 12.159 18.9061 12.159H21.8385L23.2116 13.1407C23.3284 13.2242 23.2918 13.4 23.2782 13.4519L23.2771 13.453Z" fill="#126366"/>
<path d="M4.88547 9.0967C4.9903 9.0967 5.09512 9.05685 5.17483 8.97659L6.06476 8.08667C6.23674 8.17238 6.4311 8.22097 6.63584 8.22097C7.3445 8.22097 7.9205 7.64443 7.9205 6.93631C7.9205 6.73103 7.87191 6.53721 7.78619 6.36523L9.98916 4.16226C10.1491 4.00229 10.1491 3.74296 9.98916 3.58299C9.8292 3.42302 9.56986 3.42302 9.40989 3.58299L7.20692 5.78596C7.03494 5.70025 6.84058 5.65166 6.63584 5.65166C5.92717 5.65166 5.35118 6.2282 5.35118 6.93631C5.35118 7.1416 5.39977 7.33542 5.48549 7.50739L4.59556 8.39732C4.43559 8.55729 4.43559 8.81662 4.59556 8.97659C4.67527 9.0563 4.7801 9.0967 4.88492 9.0967H4.88547ZM6.63584 6.4706C6.89244 6.4706 7.10155 6.67971 7.10155 6.93631C7.10155 7.19292 6.89244 7.40202 6.63584 7.40202C6.37923 7.40202 6.17013 7.19292 6.17013 6.93631C6.17013 6.67971 6.37923 6.4706 6.63584 6.4706Z" fill="#126366"/>
<path d="M6.63506 3.40721C6.86109 3.40721 7.04454 3.22376 7.04454 2.99773V2.55987C7.04454 2.33384 6.86109 2.15039 6.63506 2.15039C6.40903 2.15039 6.22559 2.33384 6.22559 2.55987V2.99773C6.22559 3.22376 6.40903 3.40721 6.63506 3.40721Z" fill="#126366"/>
<path d="M6.63506 10.4659C6.40903 10.4659 6.22559 10.6494 6.22559 10.8754V11.3133C6.22559 11.5393 6.40903 11.7228 6.63506 11.7228C6.86109 11.7228 7.04454 11.5393 7.04454 11.3133V10.8754C7.04454 10.6494 6.86109 10.4659 6.63506 10.4659Z" fill="#126366"/>
<path d="M10.5735 7.3458H11.0114C11.2374 7.3458 11.4209 7.16236 11.4209 6.93633C11.4209 6.7103 11.2374 6.52686 11.0114 6.52686H10.5735C10.3475 6.52686 10.1641 6.7103 10.1641 6.93633C10.1641 7.16236 10.3475 7.3458 10.5735 7.3458Z" fill="#126366"/>
<path d="M3.10545 6.93633C3.10545 6.7103 2.922 6.52686 2.69597 6.52686H2.25811C2.03208 6.52686 1.84863 6.7103 1.84863 6.93633C1.84863 7.16236 2.03208 7.3458 2.25811 7.3458H2.69597C2.922 7.3458 3.10545 7.16236 3.10545 6.93633Z" fill="#126366"/>
</g>
<defs>
<clipPath id="clip0_1655_815">
<rect width="24" height="19.2" fill="white" transform="translate(0 0.400024)"/>
</clipPath>
</defs>
</svg>
