<svg width="35" height="16" viewBox="0 0 35 16" fill="none" xmlns="http://www.w3.org/2000/svg">
<g clip-path="url(#clip0_1653_6035)">
<path d="M32.6398 0H12.2852C11.4178 0 10.7129 0.705617 10.7129 1.57227V14.4277C10.7129 15.2951 11.4185 16 12.2852 16H32.6398C33.5071 16 34.2121 15.2944 34.2121 14.4277V1.57227C34.2121 0.704949 33.5065 0 32.6398 0ZM12.2852 1.0023H32.6398C32.879 1.0023 33.0835 1.14997 33.1684 1.35911L24.3775 8.16471C23.2503 9.03738 21.676 9.03738 20.5488 8.16471L11.7573 1.35911C11.8421 1.15064 12.0466 1.0023 12.2858 1.0023H12.2852ZM11.7152 2.59461L18.7092 8.00902L11.7152 13.4061V2.59461ZM32.6398 14.9977H12.2852C12.0466 14.9977 11.8415 14.85 11.7566 14.6409L19.5278 8.64247L19.934 8.95719C20.6784 9.53318 21.5704 9.82117 22.4618 9.82117C23.3532 9.82117 24.2459 9.53318 24.9896 8.95719L25.4099 8.63178L33.167 14.6409C33.0822 14.85 32.8777 14.9977 32.6391 14.9977H32.6398ZM33.2098 13.4061L26.2291 7.99833L33.2098 2.59394V13.4061Z" fill="#126366"/>
<path d="M9.07179 9.10547H2.64373C2.36709 9.10547 2.14258 9.32998 2.14258 9.60662C2.14258 9.88325 2.36709 10.1078 2.64373 10.1078H9.07112C9.34776 10.1078 9.57227 9.88325 9.57227 9.60662C9.57227 9.32998 9.34776 9.10547 9.07112 9.10547H9.07179Z" fill="#126366"/>
<path d="M9.07146 11.7837H0.501148C0.224515 11.7837 0 12.0082 0 12.2848C0 12.5615 0.224515 12.786 0.501148 12.786H9.07146C9.34809 12.786 9.5726 12.5615 9.5726 12.2848C9.5726 12.0082 9.34809 11.7837 9.07146 11.7837Z" fill="#126366"/>
<path d="M9.07146 6.42798H4.7863C4.50967 6.42798 4.28516 6.65249 4.28516 6.92913C4.28516 7.20576 4.50967 7.43028 4.7863 7.43028H9.07146C9.34809 7.43028 9.57261 7.20576 9.57261 6.92913C9.57261 6.65249 9.34809 6.42798 9.07146 6.42798Z" fill="#126366"/>
<path d="M9.07179 3.74927H6.92888C6.65225 3.74927 6.42773 3.97378 6.42773 4.25042C6.42773 4.52705 6.65225 4.75156 6.92888 4.75156H9.07179C9.34843 4.75156 9.57294 4.52705 9.57294 4.25042C9.57294 3.97378 9.34843 3.74927 9.07179 3.74927Z" fill="#126366"/>
</g>
<defs>
<clipPath id="clip0_1653_6035">
<rect width="34.2117" height="16" fill="white"/>
</clipPath>
</defs>
</svg>
