<svg width="24" height="21" viewBox="0 0 24 21" fill="none" xmlns="http://www.w3.org/2000/svg">
<g clip-path="url(#clip0_1655_801)">
<path d="M5.45481 6.25916C5.15361 6.25916 4.90918 6.50359 4.90918 6.80478V7.98962C4.90918 8.29082 5.15361 8.53525 5.45481 8.53525C5.756 8.53525 6.00044 8.29082 6.00044 7.98962V6.80478C6.00044 6.50359 5.756 6.25916 5.45481 6.25916Z" fill="#126366"/>
<path d="M5.45481 9.22144C5.15361 9.22144 4.90918 9.46587 4.90918 9.76706V10.9519C4.90918 11.2531 5.15361 11.4975 5.45481 11.4975C5.756 11.4975 6.00044 11.2531 6.00044 10.9519V9.76706C6.00044 9.46587 5.756 9.22144 5.45481 9.22144Z" fill="#126366"/>
<path d="M5.45481 12.1843C5.15361 12.1843 4.90918 12.4288 4.90918 12.73V13.9148C4.90918 14.216 5.15361 14.4604 5.45481 14.4604C5.756 14.4604 6.00044 14.216 6.00044 13.9148V12.73C6.00044 12.4288 5.756 12.1843 5.45481 12.1843Z" fill="#126366"/>
<path d="M3.74576 0C3.11065 0.0531822 2.53178 0.476594 2.32058 1.11529L1.59393 3.30906C0.707732 3.38321 0 4.12673 0 5.03083V7.20107C0 7.43784 0.152899 7.6475 0.378412 7.72011C1.05904 7.93949 1.63638 8.79449 1.63638 9.84126C1.63638 10.888 1.05904 11.7435 0.378412 11.9634C0.152899 12.0355 0 12.2452 0 12.4815V15.7414C0 16.6936 0.783414 17.477 1.73558 17.477H10.3465L19.6074 20.6388C20.4624 20.9308 21.3977 20.4526 21.6794 19.6012L22.3866 17.4642C23.2815 17.3993 23.9995 16.6517 23.9995 15.7414V12.4804C23.9995 12.2437 23.8466 12.034 23.6211 11.9614C22.9404 11.742 22.3631 10.887 22.3631 9.84024C22.3631 8.79347 22.9404 7.93795 23.6211 7.71807C23.8466 7.64545 23.999 7.43579 23.9995 7.19903V5.02981C23.9995 4.07764 23.2161 3.29423 22.2639 3.29423H13.655L4.39571 0.0777278C4.18145 0.00255683 3.94776 0.0122728 3.74576 0ZM3.82554 1.08256C3.89611 1.07796 3.97026 1.08717 4.04389 1.1112C6.13896 1.83888 8.23404 2.56706 10.3296 3.29525H2.74758L3.3561 1.4574C3.42923 1.23597 3.61383 1.09688 3.82605 1.08256H3.82554ZM1.73558 4.386H4.90913V4.90504C4.90913 5.20623 5.15356 5.45066 5.45475 5.45066C5.75595 5.45066 6.00038 5.20623 6.00038 4.90504V4.386H22.2649C22.6316 4.386 22.9093 4.66367 22.9093 5.03032V6.88709C21.9019 7.41789 21.2729 8.56182 21.2729 9.84024C21.2729 11.1187 21.9024 12.2616 22.9093 12.7924V15.7414C22.9093 16.1081 22.6316 16.3857 22.2649 16.3857H5.99885C6.00141 16.1976 5.99987 16.0037 5.99987 15.8135C5.99987 15.5123 5.75544 15.2679 5.45424 15.2679C5.15305 15.2679 4.90861 15.5123 4.90861 15.8135C4.90759 16.0027 4.90861 16.1986 4.90964 16.3857H1.73558C1.36893 16.3857 1.09126 16.1081 1.09126 15.7414V12.7934C2.09865 12.2626 2.72763 11.1187 2.72763 9.84024C2.72763 8.56182 2.09814 7.41892 1.09126 6.88812V5.03032C1.09126 4.66367 1.36893 4.386 1.73558 4.386ZM13.7231 17.477H21.234L20.6449 19.2581C20.5472 19.5542 20.2501 19.705 19.9607 19.6063L13.7231 17.4765V17.477Z" fill="#126366"/>
<path d="M16.7791 11.2133C17.7502 11.2133 18.5485 12.012 18.5485 12.9826C18.5485 13.9532 17.7497 14.7535 16.7791 14.7535C15.8086 14.7535 15.0088 13.9537 15.0088 12.9826C15.0088 12.0115 15.8086 11.2133 16.7791 11.2133ZM16.7791 12.304C16.3977 12.304 16.0995 12.6011 16.0995 12.9826C16.0995 13.3641 16.3977 13.6622 16.7791 13.6622C17.1606 13.6622 17.4577 13.3641 17.4577 12.9826C17.4577 12.6011 17.1606 12.304 16.7791 12.304Z" fill="#126366"/>
<path d="M11.5848 6.01929C12.5559 6.01929 13.3541 6.81804 13.3541 7.78862C13.3541 8.75919 12.5554 9.55795 11.5848 9.55795C10.6142 9.55795 9.81445 8.75919 9.81445 7.78862C9.81445 6.81804 10.6142 6.01929 11.5848 6.01929ZM11.5848 7.11003C11.2033 7.11003 10.9052 7.40714 10.9052 7.78862C10.9052 8.1701 11.2033 8.4672 11.5848 8.4672C11.9663 8.4672 12.2634 8.1701 12.2634 7.78862C12.2634 7.40714 11.9663 7.11003 11.5848 7.11003Z" fill="#126366"/>
<path d="M16.3931 7.40309L11.1986 12.5976C10.9859 12.8108 10.9859 13.156 11.1986 13.3687C11.4118 13.5814 11.757 13.5814 11.9698 13.3687L17.1642 8.17423C17.3769 7.96099 17.3769 7.61582 17.1642 7.40309C16.9413 7.20519 16.6027 7.18422 16.3931 7.40309Z" fill="#126366"/>
</g>
<defs>
<clipPath id="clip0_1655_801">
<rect width="24" height="20.7252" fill="white"/>
</clipPath>
</defs>
</svg>
