<svg width="28" height="16" viewBox="0 0 28 16" fill="none" xmlns="http://www.w3.org/2000/svg">
<g clip-path="url(#clip0_1558_4254)">
<path d="M22.7495 3.42707H19.1862L19.8207 0.693607C19.8621 0.522484 19.8207 0.346858 19.7058 0.211761C19.5954 0.0766637 19.4253 -0.00439453 19.2506 -0.00439453H5.25061C4.92878 -0.00439453 4.66671 0.25229 4.66671 0.567517C4.66671 0.882743 4.92878 1.13943 5.25061 1.13943H18.5196L17.8851 3.86839L15.8667 12.5641H12.7725C12.5012 11.2627 11.3242 10.2765 9.91268 10.2765C8.50119 10.2765 7.32418 11.2582 7.05291 12.5641H5.24602C4.92418 12.5641 4.66211 12.8208 4.66211 13.1361C4.66211 13.4513 4.92418 13.708 5.24602 13.708H7.05291C7.32418 15.0094 8.50119 15.9956 9.91268 15.9956C11.3242 15.9956 12.5012 15.0139 12.7725 13.708H19.8897C20.161 15.0094 21.338 15.9956 22.7495 15.9956C24.161 15.9956 25.338 15.0139 25.6092 13.708H26.5426C26.823 13.708 27.0621 13.5143 27.1173 13.2396L28.0046 8.56527C28.0046 5.72823 25.6506 3.42257 22.7541 3.42257L22.7495 3.42707ZM9.91728 14.8563C8.95176 14.8563 8.16556 14.0862 8.16556 13.1406C8.16556 12.1949 8.95176 11.4248 9.91728 11.4248C10.8828 11.4248 11.669 12.1949 11.669 13.1406C11.669 14.0862 10.8828 14.8563 9.91728 14.8563ZM22.7495 14.8563C21.7839 14.8563 20.9977 14.0862 20.9977 13.1406C20.9977 12.1949 21.7839 11.4248 22.7495 11.4248C23.715 11.4248 24.5012 12.1949 24.5012 13.1406C24.5012 14.0862 23.715 14.8563 22.7495 14.8563ZM26.0552 12.5686H25.6046C25.3334 11.2672 24.1564 10.281 22.7449 10.281C21.3334 10.281 20.1564 11.2627 19.8851 12.5686H17.0575L18.915 4.57089H22.7449C24.9977 4.57089 26.8276 6.36318 26.8368 8.46619L26.0506 12.5731L26.0552 12.5686Z" fill="white"/>
<path d="M2.91496 3.42703H7.58163C7.90347 3.42703 8.16554 3.17034 8.16554 2.85511C8.16554 2.53989 7.90347 2.2832 7.58163 2.2832H2.91496C2.59312 2.2832 2.33105 2.53989 2.33105 2.85511C2.33105 3.17034 2.59312 3.42703 2.91496 3.42703Z" fill="white"/>
<path d="M1.75188 6.85842H7.58636C7.9082 6.85842 8.17027 6.60174 8.17027 6.28651C8.17027 5.97128 7.9082 5.7146 7.58636 5.7146H1.75188C1.43004 5.7146 1.16797 5.97128 1.16797 6.28651C1.16797 6.60174 1.43004 6.85842 1.75188 6.85842Z" fill="white"/>
<path d="M8.16552 9.71351C8.16552 9.39829 7.90345 9.1416 7.58161 9.1416H0.583908C0.262069 9.1416 0 9.39829 0 9.71351C0 10.0287 0.262069 10.2854 0.583908 10.2854H7.58621C7.90805 10.2854 8.17011 10.0287 8.17011 9.71351H8.16552Z" fill="white"/>
</g>
<defs>
<clipPath id="clip0_1558_4254">
<rect width="28" height="16" fill="white"/>
</clipPath>
</defs>
</svg>
