<svg width="16" height="16" viewBox="0 0 16 16" fill="none" xmlns="http://www.w3.org/2000/svg">
<g clip-path="url(#clip0_1675_3807)">
<path d="M8.02656 1.35566L14.0067 1.35566C14.3734 1.35566 14.6711 1.65335 14.6711 2.0201L14.6711 13.9803C14.6711 14.347 14.3734 14.6447 14.0067 14.6447L8.02656 14.6447C7.65913 14.6447 7.36213 14.9417 7.36213 15.3091C7.36213 15.6766 7.65913 15.9736 8.02656 15.9736L14.0067 15.9736C15.1057 15.9736 16 15.0793 16 13.9803L16 2.02013C16 0.921133 15.1057 0.0267896 14.0067 0.0267895L8.02656 0.026789C7.65913 0.0267889 7.36213 0.323789 7.36213 0.691226C7.36213 1.05866 7.65913 1.35566 8.02656 1.35566Z" fill="black"/>
<path d="M0.198196 8.47287L4.23807 12.4596C4.49854 12.7174 4.91979 12.7141 5.1776 12.4529C5.43541 12.1918 5.43276 11.7712 5.17095 11.5134L2.28391 8.66424L10.0201 8.66424C10.3876 8.66424 10.6846 8.36724 10.6846 7.99981C10.6846 7.63237 10.3876 7.33534 10.0201 7.33534L2.28392 7.33534L5.17095 4.48618C5.43273 4.22837 5.43473 3.80777 5.1776 3.54665C5.04738 3.41509 4.87595 3.34865 4.70451 3.34865C4.53573 3.34865 4.36698 3.41243 4.23807 3.54002L0.198196 7.52674C0.0719456 7.65165 0.000195925 7.82177 0.00019591 7.99984C0.000195894 8.17784 0.0712894 8.34727 0.198196 8.47287Z" fill="black"/>
</g>
<defs>
<clipPath id="clip0_1675_3807">
<rect width="16" height="16" fill="white" transform="translate(16 16) rotate(-180)"/>
</clipPath>
</defs>
</svg>
