<svg width="24" height="20" viewBox="0 0 24 20" fill="none" xmlns="http://www.w3.org/2000/svg">
<g clip-path="url(#clip0_1655_829)">
<path d="M23.5734 2.53887C23.2627 2.17137 22.8272 1.94684 22.3472 1.90653L5.44594 0.495591C4.96594 0.455278 4.49953 0.604809 4.13203 0.91559C3.76594 1.22543 3.54187 1.65856 3.50016 2.13622L3.16031 5.32653H1.80281C0.808594 5.32606 0 6.13465 0 7.12887V17.7086C0 18.7023 0.808594 19.5114 1.80281 19.5114H18.7627C19.7564 19.5114 20.5655 18.7028 20.5655 17.7086V15.9925L21.1673 16.0426C21.218 16.0468 21.2686 16.0492 21.3187 16.0492C22.2455 16.0492 23.0353 15.3362 23.1136 14.3964L23.9939 3.85325C24.0338 3.37325 23.8847 2.90684 23.5739 2.53887H23.5734ZM0.9375 7.12887C0.9375 6.65168 1.32562 6.26356 1.80281 6.26356H18.7627C19.2398 6.26356 19.628 6.65168 19.628 7.12887V8.09309H0.9375V7.12887ZM19.6275 17.7086C19.6275 18.1857 19.2394 18.5734 18.7622 18.5734H1.80281C1.32562 18.5734 0.9375 18.1853 0.9375 17.7086V11.9125H19.6275V17.7086ZM19.6275 10.975H0.9375V9.03012H19.6275V10.975ZM23.0592 3.77497L22.1789 14.3181C22.1391 14.7934 21.72 15.1482 21.2447 15.1084L20.565 15.0517V7.12887C20.565 6.13512 19.7564 5.32606 18.7622 5.32606H4.10297L4.43297 2.23043C4.43297 2.22668 4.43344 2.2234 4.43391 2.21965C4.47375 1.74434 4.89234 1.3895 5.36812 1.42934L22.2694 2.84075C22.4995 2.85997 22.7086 2.96778 22.8577 3.14403C23.0067 3.32028 23.0784 3.54434 23.0592 3.7745V3.77497Z" fill="#126366"/>
<path d="M13.1543 17.1868H17.6655C17.9243 17.1868 18.1343 16.9768 18.1343 16.7181V13.7748C18.1343 13.516 17.9243 13.306 17.6655 13.306H13.1543C12.8955 13.306 12.6855 13.516 12.6855 13.7748V16.7181C12.6855 16.9768 12.8955 17.1868 13.1543 17.1868ZM13.623 14.2435H17.1968V16.2493H13.623V14.2435Z" fill="#126366"/>
</g>
<defs>
<clipPath id="clip0_1655_829">
<rect width="24" height="19.0219" fill="white" transform="translate(0 0.489014)"/>
</clipPath>
</defs>
</svg>
