<svg width="24" height="24" viewBox="0 0 24 24" fill="none" xmlns="http://www.w3.org/2000/svg">
<g clip-path="url(#clip0_1655_837)">
<path d="M21.6577 0H7.79156C6.50016 0 5.44922 1.05094 5.44922 2.34234V10.6186C2.34797 11.2247 0 13.9627 0 17.2388C0 20.9583 3.02625 23.9845 6.74578 23.9845H21.6577C22.9491 23.9845 24 22.9336 24 21.6422V2.34234C24 1.05094 22.9491 0 21.6577 0ZM0.937031 17.2388C0.937031 14.0358 3.54281 11.43 6.74578 11.43C9.94875 11.43 12.5545 14.0358 12.5545 17.2388C12.5545 20.4417 9.94875 23.0475 6.74578 23.0475C3.54281 23.0475 0.937031 20.4417 0.937031 17.2388ZM8.63484 10.3997V9.27563C8.63484 9.01734 8.84484 8.80734 9.10312 8.80734H10.2272C10.4855 8.80734 10.6955 9.01734 10.6955 9.27563V10.3997C10.6955 10.658 10.4855 10.868 10.2272 10.868H9.10312C8.84484 10.868 8.63484 10.658 8.63484 10.3997ZM23.063 21.6422C23.063 22.417 22.4325 23.0475 21.6577 23.0475H10.1714C11.2725 22.3955 12.1734 21.4402 12.7575 20.2969V20.5181C12.7575 21.293 13.388 21.9234 14.1628 21.9234H15.2869C16.0617 21.9234 16.6922 21.293 16.6922 20.5181V19.3941C16.6922 18.6192 16.0617 17.9888 15.2869 17.9888H14.1628C13.8914 17.9888 13.6378 18.0661 13.4227 18.2002C13.4677 17.8861 13.4916 17.5655 13.4916 17.2392C13.4916 17.0508 13.4836 16.8642 13.4681 16.68C13.6734 16.7972 13.9102 16.8647 14.1628 16.8647H15.2869C16.0617 16.8647 16.6922 16.2342 16.6922 15.4594V14.3353C16.6922 13.5605 16.0617 12.93 15.2869 12.93H14.1628C13.4348 12.93 12.8348 13.4859 12.7645 14.1956C12.2672 13.2164 11.5378 12.3736 10.6495 11.7408C11.2191 11.5612 11.6334 11.0283 11.6334 10.4002V9.27609C11.6334 8.50125 11.003 7.87078 10.2281 7.87078H9.10406C8.32922 7.87078 7.69875 8.50125 7.69875 9.27609V10.4002C7.69875 10.455 7.70203 10.5094 7.70859 10.5628C7.39406 10.5178 7.07297 10.4939 6.74625 10.4939C6.62578 10.4939 6.50625 10.4972 6.38719 10.5033V2.34234C6.38719 1.5675 7.01766 0.937031 7.7925 0.937031H21.6577C22.4325 0.937031 23.063 1.5675 23.063 2.34234V21.6422ZM13.6941 20.5181V19.3941C13.6941 19.1358 13.9041 18.9258 14.1623 18.9258H15.2864C15.5447 18.9258 15.7547 19.1358 15.7547 19.3941V20.5181C15.7547 20.7764 15.5447 20.9864 15.2864 20.9864H14.1623C13.9041 20.9864 13.6941 20.7764 13.6941 20.5181ZM13.6941 15.4589V14.3348C13.6941 14.0766 13.9041 13.8666 14.1623 13.8666H15.2864C15.5447 13.8666 15.7547 14.0766 15.7547 14.3348V15.4589C15.7547 15.7172 15.5447 15.9272 15.2864 15.9272H14.1623C13.9041 15.9272 13.6941 15.7172 13.6941 15.4589Z" fill="#126366"/>
<path d="M21.2831 2.06104H8.16652C7.90777 2.06104 7.69824 2.27057 7.69824 2.52932V6.27697C7.69824 6.53572 7.90824 6.74525 8.16652 6.74525H21.2831C21.5418 6.74525 21.7514 6.53572 21.7514 6.27697V2.52932C21.7514 2.27057 21.5414 2.06104 21.2831 2.06104ZM20.8148 5.80869H8.63481V2.99807H20.8143V5.80869H20.8148Z" fill="#126366"/>
<path d="M15.2872 7.86987H14.1631C13.3883 7.86987 12.7578 8.50034 12.7578 9.27519V10.3992C12.7578 11.1741 13.3883 11.8046 14.1631 11.8046H15.2872C16.062 11.8046 16.6925 11.1741 16.6925 10.3992V9.27519C16.6925 8.50034 16.062 7.86987 15.2872 7.86987ZM15.7555 10.3992C15.7555 10.6575 15.5455 10.8675 15.2872 10.8675H14.1631C13.9048 10.8675 13.6948 10.6575 13.6948 10.3992V9.27519C13.6948 9.0169 13.9048 8.8069 14.1631 8.8069H15.2872C15.5455 8.8069 15.7555 9.0169 15.7555 9.27519V10.3992Z" fill="#126366"/>
<path d="M20.3458 7.86987H19.2217C18.4469 7.86987 17.8164 8.50034 17.8164 9.27519V10.3992C17.8164 11.1741 18.4469 11.8046 19.2217 11.8046H20.3458C21.1206 11.8046 21.7511 11.1741 21.7511 10.3992V9.27519C21.7511 8.50034 21.1206 7.86987 20.3458 7.86987ZM20.8141 10.3992C20.8141 10.6575 20.6041 10.8675 20.3458 10.8675H19.2217C18.9634 10.8675 18.7534 10.6575 18.7534 10.3992V9.27519C18.7534 9.0169 18.9634 8.8069 19.2217 8.8069H20.3458C20.6041 8.8069 20.8141 9.0169 20.8141 9.27519V10.3992Z" fill="#126366"/>
<path d="M20.3458 12.9291H19.2217C18.4469 12.9291 17.8164 13.5595 17.8164 14.3344V20.5177C17.8164 21.2925 18.4469 21.923 19.2217 21.923H20.3458C21.1206 21.923 21.7511 21.2925 21.7511 20.5177V14.3344C21.7511 13.5595 21.1206 12.9291 20.3458 12.9291ZM20.8141 20.5177C20.8141 20.776 20.6041 20.986 20.3458 20.986H19.2217C18.9634 20.986 18.7534 20.776 18.7534 20.5177V14.3344C18.7534 14.0761 18.9634 13.8661 19.2217 13.8661H20.3458C20.6041 13.8661 20.8141 14.0761 20.8141 14.3344V20.5177Z" fill="#126366"/>
<path d="M8.27304 14.1558C8.04054 14.0428 7.76023 14.1398 7.64726 14.3723L5.0696 19.68C4.95664 19.9125 5.05367 20.1928 5.28617 20.3063C5.35226 20.3381 5.42164 20.3536 5.49054 20.3536C5.66445 20.3536 5.83132 20.2566 5.91242 20.0897L8.49007 14.782C8.60304 14.5495 8.50601 14.2692 8.27351 14.1558H8.27304Z" fill="#126366"/>
<path d="M5.56148 13.8929C4.97695 13.3083 4.02586 13.3083 3.44133 13.8929C2.8568 14.4774 2.8568 15.4285 3.44133 16.013C3.73383 16.3051 4.11773 16.4513 4.50164 16.4513C4.88555 16.4513 5.26945 16.3051 5.56195 16.013C6.14648 15.4285 6.14648 14.4774 5.56195 13.8929H5.56148ZM4.89914 15.3507C4.67977 15.5701 4.32305 15.5701 4.10367 15.3507C3.8843 15.1313 3.8843 14.7746 4.10367 14.5552C4.21336 14.4455 4.35727 14.3907 4.50117 14.3907C4.64508 14.3907 4.78898 14.4455 4.89867 14.5552C5.11805 14.7746 5.11805 15.1313 4.89867 15.3507H4.89914Z" fill="#126366"/>
<path d="M8.01262 18.4645C7.42809 19.0491 7.42809 20.0001 8.01262 20.5847C8.30465 20.8767 8.68902 21.023 9.07293 21.023C9.45684 21.023 9.84074 20.8767 10.1332 20.5847C10.7178 20.0001 10.7178 19.0491 10.1332 18.4645C9.54871 17.88 8.59762 17.88 8.01309 18.4645H8.01262ZM9.47043 19.9223C9.25105 20.1417 8.89434 20.1417 8.67496 19.9223C8.45559 19.703 8.45559 19.3462 8.67496 19.1269C8.78465 19.0172 8.92855 18.9623 9.07246 18.9623C9.21637 18.9623 9.36027 19.0172 9.46996 19.1269C9.68934 19.3462 9.68934 19.703 9.46996 19.9223H9.47043Z" fill="#126366"/>
</g>
<defs>
<clipPath id="clip0_1655_837">
<rect width="24" height="23.9845" fill="white"/>
</clipPath>
</defs>
</svg>
