<svg width="39" height="32" viewBox="0 0 39 32" fill="none" xmlns="http://www.w3.org/2000/svg">
<g clip-path="url(#clip0_1653_14482)">
<path d="M12.7244 19.1234C15.1449 19.1234 17.1216 17.1467 17.1216 14.7262C17.1216 12.3058 15.1449 10.3291 12.7244 10.3291C10.3039 10.3291 8.33203 12.3058 8.33203 14.7262C8.33203 17.1467 10.3039 19.1234 12.7244 19.1234ZM12.7244 11.6026C14.4569 11.6026 15.8489 12.993 15.8489 14.7262C15.8489 16.4595 14.4569 17.8499 12.7244 17.8499C10.992 17.8499 9.60074 16.4595 9.60074 14.7262C9.60074 12.993 10.9912 11.6026 12.7244 11.6026Z" fill="#126366"/>
<path d="M37.546 19.8177H25.4554V14.7253C25.4554 13.8965 25.3767 13.0867 25.2271 12.3032L26.4545 11.6709C26.503 11.6557 26.5515 11.6343 26.6008 11.6064C26.635 11.5865 26.6684 11.5659 26.7011 11.5436L26.7313 11.5277L26.7289 11.5237C27.5355 10.9677 27.798 9.86125 27.3 8.999L25.2009 5.35831C24.6783 4.45232 23.5241 4.11664 22.5887 4.65754L21.3693 5.36229C19.1023 3.27349 16.0582 2 12.7245 2C5.68495 2 0 7.68575 0 14.7253V25.5432C0 26.59 0.864635 27.4506 1.91142 27.4506H27.3302C27.3533 27.4522 27.3756 27.4522 27.3994 27.4506H36.9072V29.3621C36.9072 30.2116 38.1815 30.2116 38.1815 29.3621V20.4508C38.1799 20.1008 37.8968 19.8177 37.5468 19.8169L37.546 19.8177ZM23.2282 5.76319C23.6044 5.54444 23.9719 5.77512 24.0968 5.99307L26.1976 9.63376C26.3646 9.9225 26.2962 10.2598 26.0401 10.4538L24.9352 11.0926C24.407 9.29968 23.4971 7.67302 22.292 6.30806L23.229 5.76398L23.2282 5.76319ZM21.3414 26.1772H1.91142C1.54791 26.1772 1.27269 25.9067 1.27269 25.5432V14.7253C1.27269 8.36902 6.36743 3.27428 12.7245 3.27428C19.0816 3.27428 24.1811 8.36902 24.1811 14.7261V26.1779H21.3406L21.3414 26.1772ZM36.9072 26.1772H35.6346V22.9907C35.6346 22.1419 34.3619 22.1419 34.3619 22.9907V26.1772H33.0876V24.2633C33.0876 23.4146 31.8149 23.4146 31.8149 24.2633V26.1772H30.547V22.9907C30.547 22.1419 29.2743 22.1419 29.2743 22.9907V26.1772H28V24.2705C28.0072 23.8855 27.6739 23.5833 27.2913 23.627C26.9651 23.6644 26.7209 23.9428 26.7273 24.2705V26.1772H25.4546V21.0904H36.9065V26.1772H36.9072Z" fill="#126366"/>
<path d="M21.6241 14.2678C21.4515 10.8729 19.3699 7.9743 16.4339 6.62525C15.3028 6.10345 14.0452 5.81152 12.7216 5.81152C11.1801 5.81152 9.72921 6.20685 8.46289 6.90127C8.42232 6.92354 8.38175 6.9466 8.34119 6.96967C8.31573 6.98399 8.29107 6.99831 8.26562 7.01263C8.23619 7.03013 8.20596 7.04603 8.17574 7.06433C8.16539 7.0699 8.15744 7.07706 8.1479 7.08262C7.26417 7.61556 6.47908 8.29725 5.82921 9.09268C5.80853 9.11336 5.78785 9.13484 5.76876 9.1595C5.04651 10.0607 4.49845 11.1083 4.16914 12.2482C4.16199 12.272 4.15562 12.2959 4.14846 12.3197C4.12619 12.3985 4.10551 12.4772 4.08562 12.5568C4.07051 12.6164 4.05619 12.6769 4.04188 12.7373C4.03074 12.7875 4.0196 12.8376 4.00926 12.8877C3.99176 12.9712 3.97506 13.0555 3.95915 13.1406C3.95199 13.1796 3.94563 13.2186 3.93927 13.2576C3.92574 13.3379 3.91381 13.4182 3.90268 13.4994C3.8987 13.528 3.89393 13.5566 3.89074 13.5861C3.87722 13.6895 3.86688 13.7937 3.85654 13.8979C3.85415 13.9265 3.85097 13.9552 3.84859 13.9846C3.83984 14.092 3.83268 14.1994 3.8279 14.3075C3.82711 14.3306 3.82631 14.3537 3.82552 14.3767C3.82075 14.4897 3.81836 14.6026 3.81836 14.7172C3.81836 14.7204 3.81836 14.7227 3.81836 14.7259C3.81836 16.9842 4.66311 19.0483 6.05352 20.6201C7.68654 22.4695 10.072 23.6395 12.7232 23.6395C14.1041 23.6395 15.4134 23.3222 16.5827 22.7566C19.4295 21.3845 21.4404 18.5424 21.6225 15.2207C21.6313 15.0568 21.6368 14.8922 21.6368 14.7259C21.6368 14.5724 21.6329 14.4197 21.6249 14.2678H21.6241ZM8.7047 8.2177C8.74527 8.20259 8.78663 8.18271 8.82799 8.15805C9.96944 7.47875 11.2994 7.08899 12.7272 7.08899C16.9478 7.08899 20.3562 10.4934 20.3633 14.7124C20.3633 14.7164 20.3633 14.7212 20.3633 14.7251C20.3633 18.9497 16.9517 22.3613 12.7272 22.3613C8.50266 22.3613 5.09105 18.9497 5.09105 14.7251C5.09105 12.9171 5.71706 11.2626 6.76384 9.95493C6.79725 9.91277 6.8243 9.87061 6.84657 9.82845C7.37314 9.19609 8.00074 8.65122 8.7047 8.2177Z" fill="#126366"/>
</g>
<defs>
<clipPath id="clip0_1653_14482">
<rect width="38.1807" height="28" fill="white" transform="translate(0 2)"/>
</clipPath>
</defs>
</svg>
