<svg width="63" height="39" viewBox="0 0 63 39" fill="none" xmlns="http://www.w3.org/2000/svg">
<path d="M20.7727 36.8636C23.735 36.8636 26.1364 34.4623 26.1364 31.5C26.1364 28.5377 23.735 26.1364 20.7727 26.1364C17.8105 26.1364 15.4091 28.5377 15.4091 31.5C15.4091 34.4623 17.8105 36.8636 20.7727 36.8636Z" stroke="#156366" stroke-width="2.5" stroke-miterlimit="1.5" stroke-linecap="round" stroke-linejoin="round"/>
<path d="M47.5909 36.8636C50.5533 36.8636 52.9546 34.4623 52.9546 31.5C52.9546 28.5377 50.5533 26.1364 47.5909 26.1364C44.6286 26.1364 42.2273 28.5377 42.2273 31.5C42.2273 34.4623 44.6286 36.8636 47.5909 36.8636Z" stroke="#156366" stroke-width="2.5" stroke-miterlimit="1.5" stroke-linecap="round" stroke-linejoin="round"/>
<path d="M26.2705 31.5H39.5455V3.60909C39.5455 2.72042 38.8251 2 37.9364 2H2" stroke="#156366" stroke-width="2.5" stroke-linecap="round"/>
<path d="M14.4705 31.5H8.97274C8.08406 31.5 7.36365 30.7797 7.36365 29.8909V16.75" stroke="#156366" stroke-width="2.5" stroke-linecap="round"/>
<path d="M4.68182 10.0455H15.4091" stroke="#156366" stroke-width="2.5" stroke-linecap="round" stroke-linejoin="round"/>
<path d="M39.5455 10.0455H54.5907C55.2266 10.0455 55.8029 10.4199 56.0612 11.001L60.8614 21.8015C60.9528 22.0074 61 22.23 61 22.455V29.8909C61 30.7797 60.2797 31.5 59.3909 31.5H54.2955" stroke="#156366" stroke-width="2.5" stroke-linecap="round"/>
<path d="M39.5455 31.5H42.2273" stroke="#156366" stroke-width="2.5" stroke-linecap="round"/>
</svg>