<svg width="24" height="24" viewBox="0 0 24 24" fill="none" xmlns="http://www.w3.org/2000/svg">
<g clip-path="url(#clip0_1558_4184)">
<path d="M22.5262 16.9455C22.4865 16.9125 17.9895 13.713 16.7752 13.9088C16.1895 14.0122 15.855 14.412 15.1838 15.2115C15.0758 15.3405 14.8155 15.6488 14.6145 15.8685C14.1902 15.7303 13.7764 15.5619 13.3762 15.3645C11.3104 14.3588 9.64124 12.6896 8.6355 10.6237C8.43815 10.2236 8.26972 9.80975 8.1315 9.3855C8.352 9.18375 8.661 8.9235 8.793 8.8125C9.58875 8.145 9.98775 7.80975 10.0912 7.22325C10.3035 6.009 7.0875 1.5135 7.0545 1.473C6.90804 1.26529 6.7173 1.09269 6.49603 0.967663C6.27476 0.842632 6.02849 0.768289 5.775 0.75C4.4715 0.75 0.75 5.577 0.75 6.39075C0.75 6.438 0.81825 11.241 6.741 17.2658C12.759 23.1817 17.562 23.25 17.6092 23.25C18.4223 23.25 23.25 19.5285 23.25 18.225C23.2315 17.9715 23.157 17.7252 23.0319 17.5039C22.9067 17.2827 22.734 17.092 22.5262 16.9455ZM17.526 21.7455C16.875 21.69 12.84 21.1583 7.8 16.2075C2.82525 11.1428 2.307 7.101 2.25525 6.47475C3.23833 4.93173 4.42559 3.52877 5.78475 2.304C5.81475 2.334 5.8545 2.379 5.9055 2.4375C6.94787 3.86042 7.84581 5.3837 8.586 6.98475C8.34529 7.2269 8.09088 7.45503 7.824 7.668C7.41014 7.98334 7.03011 8.34075 6.69 8.7345C6.63245 8.81525 6.59149 8.9066 6.56947 9.00328C6.54746 9.09996 6.54483 9.20005 6.56175 9.29775C6.72047 9.9853 6.96356 10.6506 7.2855 11.2785C8.43892 13.647 10.3528 15.5607 12.7215 16.7137C13.3493 17.0361 14.0146 17.2795 14.7023 17.4382C14.7999 17.4555 14.9001 17.4531 14.9968 17.4311C15.0936 17.4091 15.1849 17.3679 15.2655 17.31C15.6606 16.9685 16.0193 16.587 16.3358 16.1715C16.5712 15.891 16.8855 15.5168 17.0047 15.411C18.6099 16.1505 20.1365 17.0495 21.5618 18.0945C21.624 18.147 21.6683 18.1875 21.6975 18.2137C20.4727 19.5733 19.0694 20.7609 17.526 21.744V21.7455Z" fill="#126366"/>
<path d="M17.25 11.25H18.75C18.7482 9.65925 18.1155 8.13416 16.9907 7.00933C15.8658 5.8845 14.3408 5.25179 12.75 5.25V6.75C13.9431 6.75119 15.087 7.22568 15.9307 8.06933C16.7743 8.91299 17.2488 10.0569 17.25 11.25Z" fill="#126366"/>
<path d="M21 11.25H22.5C22.497 8.66505 21.4688 6.18683 19.641 4.359C17.8132 2.53116 15.3349 1.50298 12.75 1.5V3C14.9372 3.00258 17.0342 3.8726 18.5808 5.41922C20.1274 6.96584 20.9974 9.06276 21 11.25Z" fill="#126366"/>
</g>
<defs>
<clipPath id="clip0_1558_4184">
<rect width="24" height="24" fill="white"/>
</clipPath>
</defs>
</svg>
