<?xml version="1.0" standalone="no"?>
<!DOCTYPE svg PUBLIC "-//W3C//DTD SVG 20010904//EN"
 "http://www.w3.org/TR/2001/REC-SVG-20010904/DTD/svg10.dtd">
<svg version="1.0" xmlns="http://www.w3.org/2000/svg"
 width="81.000000pt" height="45.000000pt" viewBox="0 0 81.000000 45.000000"
 preserveAspectRatio="xMidYMid meet">

<g transform="translate(0.000000,45.000000) scale(0.100000,-0.100000)"
fill="#093e64" stroke="none">
<path d="M569 401 c-22 -21 -39 -48 -39 -60 0 -33 13 -25 32 19 33 80 144 90
188 17 40 -65 23 -106 -98 -238 -48 -52 -93 -102 -101 -112 -13 -16 -5 -17
118 -17 86 0 130 4 126 10 -3 6 -52 10 -111 10 l-105 0 89 99 c50 54 97 113
106 129 20 39 20 85 1 122 -23 44 -53 60 -113 60 -50 0 -58 -3 -93 -39z"/>
<path d="M102 253 c44 -98 86 -193 94 -212 8 -19 17 -32 20 -29 6 7 -178 418
-187 418 -4 0 29 -80 73 -177z"/>
<path d="M138 240 c48 -104 88 -187 91 -185 6 6 -162 375 -170 375 -4 0 32
-85 79 -190z"/>
<path d="M152 278 c38 -84 74 -164 79 -177 5 -13 12 -22 14 -19 7 7 -147 348
-156 348 -4 0 24 -69 63 -152z"/>
<path d="M184 272 c39 -88 72 -155 74 -151 4 11 -130 309 -139 309 -4 0 25
-71 65 -158z"/>
<path d="M208 285 c36 -79 68 -143 70 -140 6 6 -121 285 -129 285 -4 0 23 -65
59 -145z"/>
<path d="M229 305 c31 -69 59 -125 63 -125 3 0 -19 56 -50 125 -31 69 -59 125
-63 125 -4 0 19 -56 50 -125z"/>
<path d="M252 320 c28 -61 53 -108 55 -106 6 6 -90 216 -98 216 -4 0 15 -50
43 -110z"/>
<path d="M260 410 c-6 -12 -9 -24 -7 -27 3 -2 11 5 17 17 6 12 9 24 7 27 -3 2
-11 -5 -17 -17z"/>
<path d="M286 401 c-9 -16 -16 -36 -16 -43 1 -7 10 4 21 25 11 22 18 41 15 44
-2 3 -12 -9 -20 -26z"/>
<path d="M322 413 c-21 -39 -41 -93 -34 -93 9 1 54 102 48 107 -2 3 -9 -4 -14
-14z"/>
<path d="M330 366 c-16 -38 -30 -73 -29 -79 0 -7 16 21 35 62 19 41 32 76 29
79 -2 3 -18 -25 -35 -62z"/>
<path d="M377 399 c-8 -19 -27 -60 -41 -91 -14 -32 -22 -58 -18 -58 9 0 84
171 78 178 -3 2 -11 -11 -19 -29z"/>
<path d="M420 420 c0 -5 11 -10 25 -10 l25 0 0 -200 c0 -127 4 -200 10 -200 6
0 10 77 10 210 l0 210 -35 0 c-19 0 -35 -4 -35 -10z"/>
</g>
</svg>
